<svg width="176" height="176" viewBox="0 0 176 176" fill="none" xmlns="http://www.w3.org/2000/svg">
<path d="M88 0C105.64 2.10358e-07 122.873 5.30161 137.463 15.2169L125.098 33.4127C114.155 25.9762 101.23 22 88 22L88 0Z" fill="#F7F7F7"/>
<path d="M139.734 16.8128C154.004 27.1832 164.828 41.6029 170.801 58.2011L150.101 65.6508C145.621 53.2022 137.503 42.3874 126.8 34.6096L139.734 16.8128Z" fill="#F7F7F7"/>
<path d="M171.564 60.412C177.094 77.163 177.462 95.1894 172.621 112.152L151.466 106.114C155.097 93.3921 154.82 79.8723 150.673 67.309L171.564 60.412Z" fill="#F7F7F7"/>
<path d="M171.851 114.701C166.499 131.51 156.218 146.322 142.343 157.216L128.758 139.912C139.164 131.741 146.874 120.632 150.888 108.026L171.851 114.701Z" fill="#616161"/>
<path d="M140.161 158.874C125.954 169.331 108.932 175.276 91.3043 175.938L90.4782 153.953C103.699 153.457 116.466 148.998 127.121 141.156L140.161 158.874Z" fill="#616161"/>
<path d="M88 176C70.3597 176 53.1266 170.698 38.5367 160.783L50.9025 142.587C61.8449 150.024 74.7698 154 88 154L88 176Z" fill="#616161"/>
<path d="M36.7363 159.526C22.3983 149.25 11.4796 134.902 5.39697 118.344L26.0477 110.758C30.6097 123.177 38.7987 133.938 49.5522 141.645L36.7363 159.526Z" fill="#616161"/>
<path d="M4.49033 115.751C-1.07263 99.0112 -1.47612 80.9855 3.33222 64.0132L24.4992 70.0099C20.8929 82.7391 21.1955 96.2584 25.3678 108.813L4.49033 115.751Z" fill="#616161"/>
<path d="M4.0824 61.5078C9.39296 44.6859 19.6366 29.8483 33.4842 18.9201L47.1131 36.1901C36.7275 44.3862 29.0447 55.5144 25.0618 68.1309L4.0824 61.5078Z" fill="#616161"/>
<path d="M35.7846 17.1654C49.9839 6.69836 67.0013 0.740424 84.6286 0.0646045L85.4715 22.0485C72.251 22.5553 59.4879 27.0238 48.8384 34.874L35.7846 17.1654Z" fill="#616161"/>
<circle cx="88" cy="89" r="54" fill="#F7F7F7"/>
<path d="M67.5588 105.04L67.5988 82.32L63.3988 85.08L61.5588 79.36L69.6388 75.24H73.5988V105.04H67.5588ZM86.8806 105.44C82.4406 105.44 79.6006 104.52 77.0006 102.96V97.52C80.6006 99.16 82.7606 100.08 86.4806 100.08C89.9206 100.08 91.5606 98.88 91.5606 96.36C91.5606 93.88 89.5206 92.84 86.0406 92.84H81.3606V87.6H85.8806C88.7606 87.6 90.8406 86.04 90.8406 83.84C90.8406 81.48 89.4006 80.32 86.4406 80.32C83.3606 80.32 81.6806 81.04 78.5606 82.56L77.0406 77.56C80.4006 75.84 82.9206 75 87.0406 75C93.2406 75 96.8806 78.28 96.8806 83.44C96.8806 86.08 95.6406 88.24 93.5606 89.6C96.1606 91 97.7206 93.48 97.7206 96.6C97.7206 102.32 93.6806 105.44 86.8806 105.44ZM109.228 99.72V93.08H102.628V88.04H109.268V81.52H114.308V88.04H120.868V93.08H114.268V99.8L109.228 99.72Z" fill="black"/>
</svg>
