<svg width="66" height="71" viewBox="0 0 66 71" fill="none" xmlns="http://www.w3.org/2000/svg">
<rect width="66" height="70.3567" rx="33" fill="black"/>
<path d="M48.1627 41.6874C48.6417 40.0146 48.8849 38.2699 48.8849 36.4921C48.8849 34.7209 48.6434 32.9825 48.1674 31.315C49.2143 30.8701 50.1661 30.1578 50.9564 29.2107C52.3222 27.5747 53.0429 25.4344 52.9861 23.1849C52.8684 18.5405 49.434 14.8711 45.3291 15.0036C43.3408 15.0679 41.4941 16.0045 40.1282 17.6409C39.4385 18.4673 38.9138 19.4223 38.5702 20.455C37.0963 19.9167 35.5601 19.6434 33.9942 19.6434C32.4275 19.6434 30.8901 19.9174 29.4153 20.4564C28.3516 17.2712 25.6292 15 22.4465 15C18.3404 15 15 18.78 15 23.426C15 27.0272 17.0074 30.1074 19.8222 31.3107C19.3456 32.9799 19.1038 34.7196 19.1038 36.4921C19.1038 38.2699 19.347 40.0146 19.8259 41.6874C17.0091 42.8897 15 45.9712 15 49.574C15 50.8423 15.2429 52.0617 15.7221 53.1981C15.7536 53.2728 15.7978 53.3397 15.8521 53.3951C15.9065 53.4504 15.9699 53.4931 16.0388 53.5207C16.1077 53.5483 16.1808 53.5603 16.2538 53.556C16.3268 53.5516 16.3984 53.5311 16.4643 53.4954C16.5975 53.4234 16.7 53.2945 16.7492 53.137C16.7985 52.9795 16.7905 52.8064 16.7271 52.6556C16.3197 51.6898 16.1133 50.653 16.1133 49.574C16.1133 45.6228 18.9544 42.4081 22.4465 42.4081C25.9389 42.4081 28.78 45.6228 28.78 49.574C28.78 53.5255 25.9389 56.7402 22.4465 56.7402C20.8538 56.7402 19.3313 56.0687 18.1601 54.8492C17.9337 54.6138 17.5814 54.6305 17.3735 54.8864C17.324 54.9472 17.2856 55.0185 17.2604 55.0962C17.2353 55.1739 17.2239 55.2564 17.227 55.339C17.23 55.4217 17.2474 55.5029 17.2782 55.5779C17.309 55.6529 17.3525 55.7204 17.4063 55.7763C18.7837 57.2104 20.5737 58 22.4465 58C25.6338 58 28.3597 55.7219 29.4199 52.5295C30.893 53.0676 32.4289 53.3408 33.9942 53.3408C35.5598 53.3408 37.096 53.0676 38.5691 52.5298C39.6294 55.7223 42.3552 58 45.5425 58C49.6486 58 52.989 54.22 52.989 49.574C52.989 45.9712 50.9799 42.8894 48.1627 41.6874ZM40.9377 18.5057C42.0991 17.1141 43.6702 16.3175 45.3613 16.2627C45.4225 16.2607 45.4838 16.2598 45.5451 16.2598C48.954 16.2598 51.7751 19.3406 51.8731 23.2206C51.9215 25.1339 51.3086 26.954 50.1473 28.346C48.9858 29.7376 47.4147 30.5342 45.7237 30.5889C45.6624 30.5909 45.6011 30.5919 45.5398 30.5919C42.131 30.5919 39.3098 27.5111 39.2119 23.6311C39.1631 21.7177 39.7763 19.8974 40.9377 18.5057ZM38.2568 51.32C36.8853 51.8245 35.4539 52.081 33.9942 52.081C32.5351 52.081 31.1038 51.8245 29.7321 51.32C29.8394 50.7459 29.8934 50.1607 29.8933 49.5739C29.8933 44.9279 26.5526 41.1484 22.4465 41.1484C21.9145 41.1484 21.3956 41.2123 20.8949 41.3327C20.4452 39.7751 20.2171 38.1495 20.2171 36.4921C20.2171 34.84 20.4441 33.2197 20.8908 31.6659C21.4022 31.7896 21.9236 31.8518 22.4465 31.8516C23.7222 31.8516 24.9807 31.4803 26.0867 30.7779C26.3547 30.6077 26.45 30.2238 26.2995 29.9204C26.1491 29.617 25.8098 29.5093 25.5417 29.6795C24.6018 30.2763 23.5314 30.5919 22.4465 30.5919C18.9542 30.5919 16.1133 27.3772 16.1133 23.4256C16.1133 19.4744 18.9544 16.2598 22.4465 16.2598C25.9389 16.2598 28.78 19.4744 28.78 23.426C28.78 25.0791 28.2707 26.6919 27.3458 27.9677C27.1506 28.2364 27.1855 28.6334 27.4233 28.8541C27.5374 28.96 27.684 29.0103 27.8309 28.9939C27.9778 28.9774 28.1129 28.8957 28.2066 28.7666C29.2941 27.2663 29.8933 25.3694 29.8933 23.4256C29.8933 22.8224 29.8362 22.2335 29.7292 21.6656C31.102 21.16 32.5342 20.9032 33.9942 20.9032C35.4539 20.9032 36.8856 21.1598 38.2577 21.6646C38.135 22.3226 38.0817 22.9948 38.0989 23.6671C38.2145 28.2295 41.5312 31.852 45.5395 31.8516C46.0633 31.8517 46.5857 31.7899 47.0981 31.6673C47.5446 33.2203 47.7717 34.8406 47.7717 36.4922C47.7717 38.1495 47.5432 39.7751 47.0938 41.3327C46.5839 41.2099 46.0639 41.1481 45.5425 41.1484C41.4363 41.1484 38.096 44.928 38.096 49.574C38.096 50.1727 38.1517 50.7567 38.2568 51.32ZM45.5425 56.7402C42.0501 56.7402 39.2093 53.5256 39.2093 49.5744C39.2093 45.6228 42.0501 42.4081 45.5425 42.4081C49.0348 42.4081 51.8757 45.6228 51.8757 49.5744C51.8757 53.5256 49.0348 56.7402 45.5425 56.7402Z" fill="white"/>
<path d="M26.2365 19.7078C26.1428 19.6357 26.0319 19.5976 25.9186 19.5987C25.8053 19.5998 25.695 19.6401 25.6025 19.714C25.4134 19.8648 25.2102 19.9915 24.9965 20.0916C24.2318 19.4145 23.1234 19.4224 22.3641 20.1694C21.9725 20.5542 21.723 21.0916 21.6654 21.6749C21.2577 21.6063 20.8667 21.4444 20.5162 21.1991C20.1656 20.9539 19.8629 20.6304 19.6264 20.2484C19.5697 20.1573 19.4928 20.0849 19.4033 20.0384C19.3138 19.9919 19.2151 19.973 19.1171 19.9837C19.019 19.9945 18.9252 20.0345 18.8453 20.0997C18.7654 20.1648 18.7021 20.2529 18.6621 20.3547C18.6462 20.3954 18.2717 21.3638 18.3194 22.5492C18.356 23.4562 18.6427 24.6254 19.6885 25.5283C19.3108 25.6666 18.9145 25.7286 18.5178 25.7114C18.3927 25.7059 18.2697 25.7482 18.1685 25.8316C18.0673 25.9149 17.9939 26.0344 17.9601 26.1708C17.9263 26.3071 17.9341 26.4524 17.9822 26.5831C18.0303 26.7138 18.1159 26.8224 18.2253 26.8913C19.0985 27.4403 20.0341 27.7152 20.9481 27.7152C21.8263 27.7152 22.6845 27.4613 23.4481 26.9531C24.4057 26.3156 25.1015 25.3397 25.4793 24.1478C25.4911 24.1176 25.501 24.0862 25.5089 24.0537C25.7031 23.4064 25.8049 22.6974 25.8049 21.9455C25.8049 21.9127 25.804 21.8796 25.8029 21.8467C26.1213 21.4219 26.3478 20.9189 26.4644 20.3777C26.4911 20.253 26.4836 20.1222 26.4429 20.0025C26.4022 19.8828 26.3302 19.78 26.2366 19.7078H26.2365ZM24.6744 21.749C24.6855 21.8146 24.6913 21.8825 24.6913 21.9475C24.6913 22.5649 24.6101 23.1367 24.4556 23.6534C24.4471 23.6774 24.4401 23.7019 24.4344 23.7269C24.1454 24.6422 23.6192 25.3774 22.8837 25.8672C22.2105 26.3157 21.4379 26.5066 20.6504 26.4419C20.8309 26.3409 21.005 26.226 21.1717 26.0982C21.2538 26.035 21.3195 25.9482 21.362 25.8467C21.4045 25.7452 21.4223 25.6327 21.4135 25.5208C21.4047 25.4089 21.3695 25.3017 21.3118 25.2103C21.254 25.1189 21.1757 25.0467 21.085 25.0011C20.0456 24.4785 19.4899 23.6472 19.4333 22.5308C19.423 22.3141 19.4298 22.0969 19.4537 21.8816C20.2193 22.6055 21.2001 23.0006 22.2238 22.9707C22.3689 22.9665 22.5068 22.8984 22.6082 22.7807C22.7095 22.6631 22.7662 22.5054 22.7663 22.3411V21.9505C22.7642 21.7933 22.7925 21.6376 22.8493 21.4942C22.906 21.3507 22.9898 21.2231 23.0947 21.1201C23.4925 20.7287 24.0972 20.7763 24.4431 21.2264C24.511 21.3147 24.5994 21.3798 24.6983 21.4144C24.6638 21.5215 24.6556 21.6371 24.6745 21.749H24.6744ZM43.7104 23.9227H44.4996V27.6788C44.4996 27.8458 44.5582 28.006 44.6626 28.1242C44.767 28.2423 44.9086 28.3087 45.0562 28.3087C45.2039 28.3087 45.3454 28.2423 45.4498 28.1242C45.5542 28.006 45.6129 27.8458 45.6129 27.6788V23.9227H46.4725C46.7797 23.9227 47.0291 23.6406 47.0291 23.2929C47.0291 22.9452 46.7797 22.663 46.4725 22.663H45.6129V20.9006C45.6129 20.2957 46.048 19.8032 46.5829 19.8032H47.3036C47.611 19.8032 47.8602 19.5211 47.8602 19.1733C47.8602 19.0063 47.8016 18.8461 47.6972 18.7279C47.5928 18.6098 47.4512 18.5435 47.3036 18.5435H46.5829C45.4342 18.5435 44.4996 19.6008 44.4996 20.9006V22.663H43.7104C43.4032 22.663 43.1538 22.9452 43.1538 23.2929C43.1538 23.6406 43.4032 23.9227 43.7104 23.9227ZM21.1833 52.8317C21.3158 52.8317 21.4482 52.793 21.5662 52.7159L25.3552 50.2394C25.4715 50.1632 25.5681 50.0537 25.6353 49.922C25.7025 49.7903 25.738 49.6409 25.7381 49.4888C25.7381 49.1804 25.5915 48.8927 25.3552 48.7385L21.5663 46.2619C21.4499 46.186 21.3178 46.146 21.1834 46.146C21.049 46.146 20.917 46.186 20.8006 46.2619C20.6842 46.3381 20.5876 46.4476 20.5203 46.5793C20.4531 46.711 20.4175 46.8604 20.4173 47.0126V51.9654C20.4173 52.274 20.5643 52.5617 20.8006 52.7159C20.9169 52.792 21.0489 52.832 21.1833 52.8318V52.8317ZM21.5306 47.6936L24.2779 49.4892L21.5306 51.2846V47.6936ZM47.9609 45.1131H43.1234C42.2832 45.1131 41.5995 45.8866 41.5995 46.8377V52.3108C41.5995 53.2618 42.2831 54.0354 43.1234 54.0354H47.9609C48.8011 54.0354 49.4846 53.2618 49.4846 52.3108V46.8377C49.4846 45.8867 48.8011 45.1131 47.9609 45.1131ZM48.3714 52.3108C48.3713 52.434 48.3281 52.5522 48.2511 52.6393C48.1742 52.7265 48.0698 52.7755 47.9609 52.7757H43.1234C43.0145 52.7755 42.91 52.7265 42.8331 52.6394C42.7561 52.5522 42.7128 52.434 42.7128 52.3108V46.8377C42.7129 46.7145 42.7562 46.5964 42.8331 46.5092C42.9101 46.4221 43.0145 46.373 43.1234 46.3729H47.9609C48.0698 46.3731 48.1741 46.4221 48.2511 46.5093C48.328 46.5964 48.3713 46.7145 48.3714 46.8377V52.3108Z" fill="white"/>
<path d="M45.5423 47.6703C44.6146 47.6703 43.8596 48.5245 43.8596 49.5744C43.8596 50.6242 44.6146 51.4781 45.5423 51.4781C46.47 51.4781 47.2249 50.6242 47.2249 49.5744C47.2249 48.5245 46.47 47.6703 45.5423 47.6703ZM45.5423 50.2183C45.2283 50.2183 44.9729 49.9293 44.9729 49.5744C44.9729 49.2191 45.2283 48.93 45.5423 48.93C45.8563 48.93 46.1116 49.219 46.1116 49.5744C46.1116 49.9293 45.8562 50.2183 45.5423 50.2183ZM38.0227 29.9571C37.875 29.9571 37.7335 30.0235 37.6291 30.1416C37.5247 30.2597 37.466 30.4199 37.466 30.587V30.8694C36.6809 31.3932 35.859 31.843 35.0086 32.2142C34.3271 32.5108 33.629 32.7561 32.9189 32.9487C32.8066 32.8502 32.6685 32.7966 32.5264 32.7965H29.9777C29.362 32.7965 28.8613 33.3634 28.8613 34.0598V37.3677C28.8613 38.0645 29.362 38.6311 29.9778 38.6311H30.4872L30.6802 42.831C30.684 42.9136 30.7022 42.9945 30.7336 43.0692C30.7651 43.1438 30.8092 43.2107 30.8635 43.2661C30.9178 43.3214 30.9812 43.3641 31.0501 43.3918C31.119 43.4194 31.1921 43.4314 31.2651 43.427C31.4125 43.4183 31.5508 43.3438 31.6496 43.2197C31.7484 43.0956 31.7996 42.9322 31.792 42.7654L31.6019 38.6311H32.5264C32.674 38.6311 32.8099 38.574 32.9187 38.4792C33.3706 38.6024 33.8177 38.747 34.259 38.9125C34.3283 38.9386 34.4016 38.9489 34.4745 38.9429C34.5474 38.9369 34.6186 38.9148 34.6839 38.8777C34.7492 38.8406 34.8075 38.7893 34.8553 38.7267C34.9031 38.6641 34.9396 38.5915 34.9626 38.513C34.9856 38.4345 34.9947 38.3516 34.9894 38.2691C34.9842 38.1866 34.9646 38.1061 34.9318 38.0321C34.899 37.9582 34.8536 37.8923 34.7983 37.8382C34.7431 37.7841 34.6789 37.7428 34.6095 37.7168C34.1356 37.539 33.6554 37.3838 33.17 37.2516V34.1767C33.9308 33.9704 34.6787 33.7075 35.4088 33.3896C36.1139 33.0819 36.801 32.7236 37.4658 32.3167V39.1123C37.2218 38.9631 36.9747 38.8205 36.7248 38.6845C36.6589 38.6486 36.5875 38.6278 36.5145 38.6231C36.4415 38.6185 36.3684 38.6302 36.2994 38.6576C36.2305 38.685 36.1669 38.7274 36.1124 38.7826C36.058 38.8378 36.0137 38.9046 35.982 38.9791C35.9503 39.0537 35.9319 39.1346 35.9278 39.2172C35.9238 39.2998 35.9341 39.3825 35.9583 39.4605C35.9825 39.5386 36.02 39.6105 36.0687 39.6722C36.1175 39.7339 36.1765 39.7841 36.2424 39.8199C36.659 40.0473 37.0671 40.294 37.4658 40.5594V40.8406C37.4658 41.0076 37.5244 41.1678 37.6288 41.286C37.7332 41.4041 37.8748 41.4705 38.0224 41.4705C38.1701 41.4705 38.3117 41.4041 38.416 41.286C38.5204 41.1678 38.5791 41.0076 38.5791 40.8406V30.5869C38.5791 30.5042 38.5648 30.4223 38.5368 30.3459C38.5089 30.2695 38.4679 30.2 38.4162 30.1415C38.3646 30.083 38.3032 30.0366 38.2357 30.005C38.1682 29.9733 38.0958 29.957 38.0227 29.957L38.0227 29.9571ZM32.057 37.371L29.9746 37.3677L29.9778 34.0562H32.057V37.371Z" fill="white"/>
</svg>
