<svg width="71" height="71" viewBox="0 0 71 71" fill="none" xmlns="http://www.w3.org/2000/svg">
<rect width="71" height="71" rx="35.5" fill="black"/>
<g clip-path="url(#clip0_2093_89)">
<path d="M35.8927 14.9594C35.9838 14.9589 36.0748 14.9583 36.1687 14.9578C36.4661 14.9564 36.7634 14.9573 37.0607 14.9584C37.2687 14.9582 37.4767 14.9579 37.6847 14.9575C38.1187 14.9569 38.5526 14.9576 38.9866 14.9591C39.4879 14.9608 39.9891 14.9603 40.4904 14.9586C40.9224 14.9571 41.3544 14.9569 41.7865 14.9578C42.0438 14.9583 42.3012 14.9582 42.5585 14.9573C42.8446 14.9565 43.1307 14.9577 43.4168 14.9594C43.5017 14.9588 43.5867 14.9582 43.6742 14.9575C44.2438 14.964 44.2438 14.964 44.5055 15.1416C44.6593 15.3948 44.6507 15.5693 44.6092 15.8593C44.5007 16.0301 44.5007 16.0301 44.2967 16.1718C44.0296 16.2188 43.765 16.2142 43.4944 16.2119C43.4128 16.2125 43.3312 16.213 43.2472 16.2136C42.9769 16.2151 42.7067 16.2145 42.4364 16.2139C42.2482 16.2146 42.0599 16.2156 41.8717 16.2167C41.3753 16.2192 40.8788 16.22 40.3824 16.2203C39.5901 16.221 38.7977 16.2238 38.0054 16.2275C37.7295 16.2285 37.4536 16.2284 37.1777 16.2283C37.0065 16.2288 36.8354 16.2293 36.6643 16.2299C36.5885 16.2296 36.5128 16.2293 36.4347 16.229C35.349 16.2352 34.296 16.4393 33.4783 17.2072C32.6007 18.213 32.6201 19.3795 32.6161 20.6404C32.6148 20.8004 32.6134 20.9603 32.6119 21.1202C32.6082 21.5385 32.6058 21.9568 32.6038 22.3751C32.6015 22.803 32.5978 23.2309 32.5943 23.6588C32.5876 24.4964 32.5823 25.3341 32.578 26.1718C32.6265 26.1952 32.675 26.2186 32.725 26.2428C33.4324 26.607 33.7661 27.3495 34.0624 28.0468C34.1261 28.2616 34.1502 28.4519 34.1499 28.6756C34.15 28.769 34.15 28.769 34.1502 28.8642C34.1499 28.9317 34.1496 28.9993 34.1494 29.0689C34.1494 29.1405 34.1494 29.2122 34.1494 29.2861C34.1493 29.5228 34.1487 29.7595 34.1481 29.9962C34.148 30.1604 34.1479 30.3246 34.1478 30.4888C34.1475 30.9209 34.1467 31.3529 34.1459 31.785C34.1451 32.2259 34.1447 32.6669 34.1443 33.1078C34.1435 33.9729 34.1421 34.8379 34.1405 35.703C34.2642 35.7405 34.3879 35.7779 34.5116 35.8153C34.5805 35.8362 34.6493 35.857 34.7203 35.8785C35.0097 35.9631 35.263 36.0252 35.5658 36.0263C35.6642 36.0269 35.6642 36.0269 35.7646 36.0276C35.8359 36.0277 35.9072 36.0277 35.9807 36.0278C36.0563 36.0282 36.1319 36.0286 36.2098 36.029C36.3739 36.0299 36.5381 36.0305 36.7022 36.0311C36.9619 36.032 37.2216 36.0335 37.4813 36.0352C38.2197 36.04 38.9582 36.0443 39.6966 36.0469C40.1483 36.0485 40.6 36.0512 41.0517 36.0547C41.2238 36.0558 41.396 36.0565 41.5681 36.0568C41.8088 36.0571 42.0495 36.059 42.2902 36.0611C42.3613 36.0609 42.4325 36.0606 42.5058 36.0604C42.8788 36.0653 43.1362 36.082 43.4374 36.328C43.5506 36.5545 43.5328 36.7595 43.5402 37.0122C43.5418 37.064 43.5435 37.1158 43.5451 37.1692C43.5502 37.3347 43.5548 37.5003 43.5594 37.6659C43.5628 37.7781 43.5662 37.8903 43.5697 38.0025C43.578 38.2777 43.5859 38.5528 43.5936 38.828C43.6477 38.7857 43.6477 38.7857 43.7029 38.7425C44.4032 38.1947 45.106 37.6511 45.8195 37.1205C46.1813 36.8507 46.5341 36.5717 46.8813 36.2831C47.1793 36.0616 47.4819 36.082 47.8365 36.0799C47.9525 36.0781 48.0685 36.0762 48.1845 36.0742C48.366 36.0715 48.5475 36.0692 48.729 36.0682C49.8615 36.0603 50.7969 35.9146 51.6329 35.0872C52.4984 34.1539 52.5233 33.1214 52.5213 31.9097C52.5217 31.7709 52.5221 31.6321 52.5225 31.4933C52.5236 31.1179 52.5236 30.7424 52.5234 30.367C52.5233 30.0528 52.5237 29.7387 52.5241 29.4246C52.525 28.6832 52.525 27.9418 52.5245 27.2004C52.5241 26.437 52.525 25.6737 52.5267 24.9104C52.5281 24.2536 52.5285 23.5968 52.5283 22.9399C52.5281 22.5483 52.5283 22.1567 52.5294 21.765C52.5304 21.3965 52.5302 21.0281 52.5292 20.6596C52.529 20.5249 52.5293 20.3902 52.5299 20.2555C52.5348 19.1644 52.443 18.0753 51.682 17.2216C50.6353 16.239 49.4115 16.2344 48.0588 16.2232C47.9276 16.2199 47.9276 16.2199 47.7937 16.2166C47.7148 16.2155 47.6358 16.2143 47.5544 16.2132C47.288 16.1608 47.1945 16.0727 47.0311 15.8593C46.9885 15.5611 46.9752 15.392 47.1509 15.1418C47.4145 14.9476 47.65 14.9535 47.9653 14.9556C48.0262 14.9551 48.0871 14.9547 48.1499 14.9542C48.2792 14.9536 48.4085 14.9539 48.5378 14.9548C48.7316 14.9559 48.9252 14.9533 49.119 14.9503C50.5008 14.9434 51.5616 15.3254 52.6045 16.2569C53.7238 17.4105 53.8644 18.8863 53.8571 20.406C53.8573 20.5454 53.8576 20.6849 53.8579 20.8244C53.8587 21.2 53.8579 21.5756 53.8569 21.9512C53.856 22.3461 53.8563 22.7409 53.8565 23.1357C53.8566 23.7983 53.8557 24.4609 53.8542 25.1235C53.8526 25.8877 53.8523 26.6518 53.8528 27.4159C53.8533 28.1537 53.8528 28.8915 53.8519 29.6294C53.8516 29.9421 53.8515 30.2549 53.8517 30.5677C53.8518 30.9364 53.8512 31.3052 53.8499 31.6739C53.8496 31.8085 53.8495 31.9432 53.8498 32.0779C53.8517 33.503 53.7212 34.7566 52.7342 35.8592C52.6877 35.913 52.6412 35.9668 52.5932 36.0222C51.9287 36.7419 51.0397 37.1846 50.078 37.3436C49.9033 37.3444 49.7286 37.3413 49.554 37.3354C47.9913 37.2985 47.9913 37.2985 46.6878 38.0843C46.6426 38.1293 46.5974 38.1744 46.5509 38.2208C46.2874 38.4728 45.993 38.6859 45.703 38.9061C45.5852 38.9979 45.4675 39.0897 45.3499 39.1817C45.0095 39.4464 44.6662 39.707 44.3211 39.9657C44.2716 40.0029 44.222 40.0401 44.1709 40.0785C44.0769 40.1487 43.9827 40.2186 43.8882 40.2882C43.793 40.3586 43.6984 40.4299 43.6043 40.502C43.3582 40.6865 43.1839 40.8102 42.8758 40.83C42.578 40.7811 42.578 40.7811 42.405 40.6268C42.2147 40.3045 42.2258 40.0531 42.235 39.6858C42.2354 39.6188 42.2359 39.5517 42.2363 39.4826C42.2381 39.2692 42.242 39.056 42.246 38.8426C42.2475 38.6976 42.2489 38.5526 42.2502 38.4076C42.2537 38.0529 42.2591 37.6983 42.2655 37.3436C42.1775 37.3441 42.0896 37.3447 41.9989 37.3452C41.1668 37.35 40.3348 37.3535 39.5027 37.3558C39.0749 37.357 38.6472 37.3586 38.2195 37.3613C37.8062 37.3639 37.3928 37.3653 36.9795 37.3659C36.8224 37.3663 36.6653 37.3671 36.5082 37.3684C36.2869 37.3701 36.0656 37.3703 35.8442 37.3702C35.7484 37.3715 35.7484 37.3715 35.6508 37.3728C35.093 37.3699 34.7185 37.2538 34.1405 37.1092C34.1405 38.0632 34.1405 39.0171 34.1405 39.9999C34.5422 39.9962 34.9439 39.9926 35.3578 39.9889C35.6138 39.9873 35.8698 39.9858 36.1258 39.9846C36.5313 39.9828 36.9367 39.9806 37.3421 39.9763C37.6694 39.9729 37.9966 39.971 38.3238 39.9702C38.4481 39.9697 38.5723 39.9685 38.6966 39.9668C39.6969 39.9537 40.5711 40.0642 41.328 40.7811C42.1629 41.6626 42.1613 42.6962 42.1543 43.8443C42.1532 44.0927 42.1559 44.341 42.1588 44.5894C42.1589 44.748 42.1588 44.9066 42.1584 45.0652C42.1594 45.1391 42.1604 45.213 42.1615 45.2891C42.1564 45.6471 42.1478 45.8085 41.9255 46.1011C41.7186 46.2499 41.7186 46.2499 41.4842 46.2987C41.1593 46.231 41.0604 46.1228 40.8592 45.8592C40.8047 45.6029 40.8103 45.3524 40.815 45.0911C40.8143 44.9797 40.8143 44.9797 40.8137 44.8661C40.8124 44.6291 40.8136 44.3922 40.8153 44.1551C40.8166 43.919 40.8173 43.6829 40.8161 43.4467C40.8154 43.3 40.8161 43.1533 40.8184 43.0066C40.8165 42.5385 40.7334 42.188 40.4686 41.7967C39.9884 41.3288 39.5314 41.3047 38.8927 41.3053C38.8129 41.3048 38.7331 41.3043 38.6508 41.3037C38.3871 41.3022 38.1234 41.3019 37.8597 41.3018C37.6761 41.3013 37.4924 41.3007 37.3088 41.3002C36.9239 41.2992 36.539 41.299 36.1541 41.299C35.6615 41.2991 35.169 41.2969 34.6764 41.2942C34.2971 41.2925 33.9179 41.2922 33.5386 41.2923C33.357 41.2921 33.1755 41.2914 32.9939 41.2902C32.7396 41.2886 32.4854 41.2891 32.2311 41.29C32.1565 41.2892 32.0819 41.2883 32.0051 41.2874C31.5326 41.2918 31.1757 41.372 30.7811 41.6405C30.3152 42.1187 30.2891 42.5732 30.2897 43.2092C30.2891 43.2883 30.2886 43.3673 30.2881 43.4488C30.2866 43.71 30.2863 43.9712 30.2861 44.2324C30.2856 44.4142 30.2851 44.5961 30.2845 44.7779C30.2836 45.1592 30.2833 45.5404 30.2834 45.9216C30.2834 46.4095 30.2813 46.8973 30.2786 47.3851C30.2769 47.7608 30.2765 48.1364 30.2766 48.5121C30.2764 48.6919 30.2758 48.8717 30.2745 49.0515C30.273 49.3034 30.2735 49.5552 30.2744 49.8071C30.2735 49.8809 30.2726 49.9548 30.2717 50.0309C30.2774 50.6288 30.4242 51.0401 30.8397 51.4745C31.4313 51.8613 32.0767 51.8177 32.7599 51.8154C32.9629 51.8166 33.166 51.8178 33.369 51.8192C33.6876 51.8206 34.0061 51.8213 34.3247 51.8206C34.6332 51.8201 34.9416 51.8226 35.2501 51.8251C35.3456 51.8243 35.4412 51.8235 35.5396 51.8227C35.6283 51.8237 35.717 51.8248 35.8083 51.8258C35.9252 51.8259 35.9252 51.8259 36.0445 51.826C36.3273 51.8933 36.4085 52.0256 36.5624 52.2655C36.61 52.4745 36.61 52.4745 36.621 52.6805C36.6254 52.7495 36.6298 52.8185 36.6344 52.8896C36.6364 52.9414 36.6384 52.9933 36.6405 53.0467C36.7325 52.969 36.7325 52.969 36.8263 52.8896C36.9957 52.7467 37.1664 52.6055 37.3378 52.4651C37.4678 52.357 37.5968 52.2472 37.7181 52.1294C38.1 51.7833 38.5884 51.8259 39.0764 51.809C39.6286 51.7864 39.9999 51.6817 40.4262 51.3222C40.8423 50.8028 40.8141 50.2592 40.8086 49.6254C40.815 49.271 40.8215 49.1117 41.043 48.8219C41.2499 48.6717 41.2499 48.6717 41.4842 48.6229C41.8117 48.6911 41.9085 48.7943 42.1092 49.0624C42.1636 49.3419 42.1567 49.6136 42.1483 49.8973C42.1486 50.0078 42.1486 50.0078 42.1489 50.1206C42.137 50.9849 41.9088 51.6932 41.328 52.3436C40.7889 52.8033 40.2503 53.0535 39.5419 53.0423C38.6814 53.04 38.2675 53.3593 37.6499 53.9272C37.3903 54.1611 37.1169 54.3759 36.8407 54.5897C36.7908 54.6307 36.741 54.6718 36.6896 54.714C36.4372 54.91 36.2439 55.0274 35.92 55.045C35.6249 54.9999 35.6249 54.9999 35.4514 54.8933C35.2299 54.5652 35.2795 54.2332 35.2928 53.8475C35.2942 53.7707 35.2956 53.6938 35.2971 53.6147C35.3008 53.4253 35.3059 53.2361 35.3124 53.0467C35.2612 53.0474 35.2101 53.0481 35.1575 53.0489C34.6226 53.0558 34.0877 53.0605 33.5528 53.0639C33.3535 53.0655 33.1543 53.0676 32.955 53.0703C32.6676 53.0741 32.3802 53.0759 32.0928 53.0773C32.0045 53.0789 31.9163 53.0805 31.8253 53.0822C31.06 53.0824 30.3304 52.8873 29.7655 52.3436C28.9378 51.3783 28.9511 50.411 28.9613 49.2009C28.9618 49.0479 28.9621 48.8949 28.9624 48.7419C28.9632 48.3414 28.9655 47.9409 28.9681 47.5405C28.9706 47.1309 28.9716 46.7214 28.9728 46.3118C28.9753 45.5099 28.9793 44.708 28.9842 43.9061C28.788 44.0527 28.5919 44.1994 28.3959 44.3462C28.3138 44.4075 28.3138 44.4075 28.2301 44.47C27.8657 44.7429 27.5056 45.0206 27.1483 45.3026C27.1033 45.3379 27.0584 45.3731 27.012 45.4094C26.8234 45.5574 26.6363 45.7065 26.4528 45.8608C26.1992 46.0686 26.0559 46.1642 25.7274 46.2255C25.3933 46.1561 25.29 46.0456 25.078 45.7811C25.0336 45.5216 25.0336 45.5216 25.0398 45.2303C25.0404 45.1788 25.0409 45.1273 25.0415 45.0743C25.0437 44.9111 25.0486 44.748 25.0536 44.5848C25.0555 44.4737 25.0573 44.3626 25.0589 44.2514C25.0632 43.98 25.0699 43.7087 25.078 43.4374C25.0078 43.4381 24.9376 43.4388 24.8653 43.4395C24.2 43.4458 23.5346 43.4505 22.8693 43.4536C22.5273 43.4552 22.1853 43.4574 21.8434 43.4609C21.5126 43.4644 21.1818 43.4662 20.851 43.467C20.7256 43.4676 20.6002 43.4687 20.4748 43.4704C19.2551 43.4863 18.1472 43.2725 17.2167 42.4266C16.4686 41.6419 16.1467 40.6316 16.1503 39.5654C16.1499 39.5027 16.1495 39.4399 16.1491 39.3753C16.148 39.1705 16.1481 38.9657 16.1482 38.7609C16.1479 38.6174 16.1476 38.474 16.1472 38.3305C16.1466 38.0311 16.1467 37.7317 16.1471 37.4322C16.1475 37.0488 16.1462 36.6654 16.1444 36.2819C16.1432 35.9862 16.1432 35.6905 16.1434 35.3948C16.1434 35.2534 16.143 35.112 16.1422 34.9706C16.1412 34.7731 16.1417 34.5757 16.1426 34.3783C16.1421 34.3202 16.1415 34.2621 16.1408 34.2022C16.1443 33.8561 16.1922 33.6343 16.4061 33.3593C16.629 33.2478 16.7838 33.2569 17.0311 33.2811C17.239 33.4003 17.239 33.4003 17.4217 33.5936C17.4602 33.8153 17.4735 33.9905 17.4695 34.2119C17.47 34.274 17.4704 34.336 17.4709 34.3999C17.4719 34.605 17.4703 34.81 17.4687 35.0151C17.4692 35.1582 17.4698 35.3013 17.4706 35.4443C17.4724 35.8214 17.4721 36.1984 17.4711 36.5755C17.4697 37.1772 17.4705 37.779 17.4731 38.3808C17.4736 38.5902 17.4726 38.7995 17.4714 39.0089C17.4707 39.9441 17.5077 40.7815 18.203 41.4842C18.7878 41.9636 19.3475 42.1338 20.1041 42.128C20.1668 42.1281 20.2295 42.1283 20.2941 42.1284C20.4293 42.1287 20.5645 42.1287 20.6997 42.1283C20.9139 42.1279 21.128 42.1286 21.3421 42.1296C21.9506 42.1325 22.559 42.134 23.1675 42.1331C23.5405 42.1327 23.9134 42.1341 24.2864 42.1367C24.4282 42.1373 24.5701 42.1372 24.7119 42.1364C24.9101 42.1353 25.1082 42.1365 25.3064 42.1383C25.3648 42.1374 25.4232 42.1365 25.4833 42.1356C25.7922 42.1411 25.9253 42.1777 26.1693 42.3736C26.3459 42.6011 26.3748 42.6921 26.3661 42.975C26.3649 43.0478 26.3636 43.1206 26.3623 43.1955C26.359 43.2705 26.3558 43.3455 26.3524 43.4227C26.3506 43.4992 26.3489 43.5757 26.3471 43.6545C26.3425 43.8427 26.3361 44.0306 26.328 44.2186C26.5087 44.0836 26.6894 43.9485 26.87 43.8134C26.9254 43.7719 26.9808 43.7305 27.0379 43.6878C27.3441 43.4584 27.6488 43.2272 27.9512 42.9927C28.0113 42.9463 28.0714 42.8998 28.1333 42.852C28.2502 42.7613 28.367 42.6704 28.4834 42.5792C28.563 42.5176 28.563 42.5176 28.6443 42.4547C28.6911 42.4181 28.738 42.3815 28.7863 42.3439C28.9061 42.2655 28.9061 42.2655 29.0624 42.2655C29.0656 42.1914 29.0688 42.1173 29.0721 42.0409C29.1646 41.4154 29.5882 40.8942 30.0661 40.5052C30.5465 40.1774 31.0576 39.9887 31.6393 39.9922C31.7123 39.9925 31.7853 39.9927 31.8605 39.993C31.9361 39.9937 32.0118 39.9943 32.0897 39.995C32.1665 39.9953 32.2434 39.9957 32.3226 39.9961C32.5119 39.997 32.7012 39.9983 32.8905 39.9999C32.8876 38.5248 32.8829 37.0498 32.8761 35.5747C32.873 34.8898 32.8705 34.2049 32.8693 33.5199C32.8683 32.9228 32.8662 32.3256 32.8628 31.7284C32.861 31.4124 32.8598 31.0964 32.8599 30.7804C32.8599 30.4825 32.8585 30.1847 32.856 29.8868C32.8554 29.7779 32.8552 29.6689 32.8557 29.56C32.8587 28.6764 32.7136 28.053 32.1022 27.4001C31.386 26.7542 30.3904 26.7736 29.4808 26.7765C29.3757 26.7763 29.2706 26.776 29.1656 26.7757C28.8824 26.775 28.5993 26.7753 28.3162 26.7758C28.0186 26.7762 27.7209 26.7758 27.4233 26.7755C26.9237 26.7753 26.4241 26.7756 25.9245 26.7764C25.3485 26.7772 24.7726 26.777 24.1967 26.7761C23.7003 26.7754 23.204 26.7753 22.7077 26.7757C22.4121 26.7759 22.1165 26.776 21.8209 26.7755C21.5428 26.775 21.2648 26.7753 20.9867 26.7762C20.8372 26.7765 20.6877 26.7761 20.5382 26.7756C19.6641 26.7798 18.9021 26.8567 18.203 27.4218C17.5128 28.1948 17.4652 29.0516 17.4724 30.0434C17.4632 30.6553 17.4632 30.6553 17.2383 30.9142C16.9871 31.037 16.8388 31.0567 16.5624 31.0155C16.3174 30.8765 16.2623 30.8184 16.1717 30.5468C16.0715 29.1395 16.1523 27.7862 17.0848 26.66C17.7498 25.954 18.665 25.5405 19.6314 25.5092C19.8496 25.5071 20.0677 25.509 20.2859 25.5113C20.4068 25.5114 20.5278 25.5113 20.6488 25.5111C20.9746 25.511 21.3004 25.5129 21.6263 25.5151C21.9678 25.517 22.3092 25.5172 22.6507 25.5176C23.2962 25.5185 23.9417 25.5211 24.5871 25.5242C25.3225 25.5277 26.0578 25.5295 26.7932 25.531C28.3048 25.5343 29.8164 25.5398 31.328 25.5468C31.3273 25.4663 31.3266 25.3859 31.3259 25.3031C31.3195 24.5401 31.3148 23.7771 31.3118 23.014C31.3102 22.6219 31.308 22.2297 31.3044 21.8376C31.301 21.4582 31.2991 21.0788 31.2983 20.6994C31.2978 20.5556 31.2967 20.4119 31.2949 20.2681C31.2769 18.6816 31.5341 17.3286 32.6695 16.1388C33.5888 15.3008 34.6603 14.9501 35.8927 14.9594Z" fill="white"/>
<path d="M44.5796 19.5213C45.1804 20.3118 45.421 21.1463 45.4195 22.1238C45.4195 22.2314 45.4195 22.2314 45.4196 22.3412C45.4092 22.988 45.2914 23.5568 44.9996 24.1404C45.07 24.1396 45.1404 24.1388 45.2129 24.138C45.4792 24.1353 45.7456 24.1333 46.0119 24.1319C46.1262 24.1311 46.2405 24.13 46.3548 24.1287C48.3938 24.1049 48.3938 24.1049 49.0163 24.6608C49.4735 25.3353 49.4103 26.1253 49.4084 26.9038C49.4088 27.0358 49.4092 27.1678 49.4097 27.2998C49.4104 27.5755 49.4102 27.8512 49.4094 28.127C49.4085 28.4785 49.4101 28.83 49.4124 29.1816C49.4138 29.4539 49.4138 29.7262 49.4133 29.9985C49.4133 30.1281 49.4138 30.2576 49.4148 30.3871C49.4248 31.9418 49.4248 31.9418 48.9031 32.5197C48.8508 32.5534 48.7985 32.5871 48.7447 32.6219C48.6922 32.6574 48.6397 32.693 48.5857 32.7296C48.2589 32.9115 47.9514 32.9025 47.5885 32.903C47.526 32.9034 47.4635 32.9038 47.399 32.9042C47.1918 32.9053 46.9845 32.9059 46.7772 32.9063C46.6327 32.9068 46.4881 32.9072 46.3435 32.9077C46.0399 32.9085 45.7363 32.9089 45.4327 32.9092C45.0458 32.9096 44.6589 32.9115 44.272 32.9137C43.973 32.9152 43.674 32.9156 43.3749 32.9157C43.2325 32.916 43.09 32.9166 42.9475 32.9176C42.0698 32.9235 41.2287 32.9285 40.4292 32.5145C40.2402 32.397 40.2402 32.397 40.0581 32.4803C39.9905 32.5286 39.9905 32.5286 39.9214 32.5779C39.7395 32.6689 39.6323 32.6664 39.4297 32.6674C39.3603 32.6679 39.2909 32.6684 39.2195 32.6689C39.1444 32.669 39.0693 32.6691 38.9919 32.6692C38.9148 32.6694 38.8377 32.6697 38.7583 32.67C38.5951 32.6704 38.4318 32.6706 38.2685 32.6705C38.0187 32.6707 37.7689 32.6721 37.5191 32.6736C37.3606 32.6738 37.2021 32.674 37.0436 32.6741C36.9688 32.6746 36.894 32.6752 36.817 32.6758C36.7471 32.6755 36.6773 32.6753 36.6053 32.675C36.5133 32.6752 36.5133 32.6752 36.4196 32.6754C36.2216 32.6529 36.1026 32.6109 35.9371 32.4998C35.8063 32.2828 35.7611 32.1196 35.7594 31.8676C35.7586 31.8047 35.7578 31.7417 35.757 31.6768C35.757 31.6084 35.7569 31.54 35.7569 31.4696C35.7562 31.397 35.7556 31.3244 35.7549 31.2497C35.753 31.0097 35.7523 30.7698 35.7518 30.5299C35.7511 30.3631 35.7504 30.1964 35.7497 30.0296C35.7484 29.68 35.7478 29.3304 35.7476 28.9809C35.7471 28.5328 35.7442 28.0849 35.7406 27.6368C35.7383 27.2924 35.7377 26.948 35.7377 26.6036C35.7373 26.4384 35.7364 26.2732 35.7347 26.108C35.7326 25.877 35.733 25.6462 35.734 25.4152C35.7328 25.3469 35.7317 25.2787 35.7305 25.2084C35.7345 24.8723 35.751 24.7279 35.9555 24.4494C36.1823 24.289 36.2755 24.2484 36.5479 24.2511C36.6204 24.2509 36.6928 24.2507 36.7675 24.2504C36.8835 24.2531 36.8835 24.2531 37.0018 24.2558C37.082 24.2562 37.1622 24.2565 37.2449 24.2569C37.5007 24.2586 37.7564 24.263 38.0123 24.2674C38.1847 24.2687 38.3572 24.2698 38.5297 24.2708C38.8455 24.2734 39.1612 24.2761 39.477 24.2816C39.572 24.2831 39.572 24.2831 39.669 24.2847C39.84 24.2965 39.9913 24.3278 40.1558 24.3748C41.783 22.6349 41.783 22.6349 42.4898 20.4051C42.5527 19.9639 42.6337 19.7477 42.9683 19.4529C43.478 19.1076 44.096 19.1759 44.5796 19.5213ZM43.7496 20.6248C43.731 20.7452 43.731 20.7452 43.712 20.868C43.4069 22.7262 42.2904 23.9184 41.053 25.2577C40.387 25.9101 40.387 25.9101 40.1269 26.7547C40.1247 26.842 40.1224 26.9294 40.1201 27.0194C40.1187 27.1139 40.1173 27.2084 40.1158 27.3057C40.1144 27.4029 40.1129 27.5002 40.1114 27.6003C40.1089 27.8063 40.1069 28.0122 40.1054 28.2182C40.1037 28.4289 40.0999 28.6394 40.0942 28.8501C40.0866 29.1541 40.0836 29.4577 40.0816 29.7618C40.0785 29.8556 40.0754 29.9495 40.0721 30.0462C40.0697 30.5425 40.0697 30.5425 40.3071 30.9606C40.9498 31.472 41.5915 31.6518 42.4049 31.653C42.4649 31.6534 42.5249 31.6538 42.5867 31.6542C42.7842 31.6553 42.9817 31.6559 43.1792 31.6563C43.3166 31.6568 43.4541 31.6572 43.5915 31.6577C43.8791 31.6585 44.1667 31.6589 44.4542 31.6592C44.8234 31.6596 45.1925 31.6615 45.5616 31.6637C45.8451 31.6652 46.1287 31.6656 46.4123 31.6657C46.5484 31.666 46.6846 31.6666 46.8207 31.6676C47.0106 31.6689 47.2004 31.6688 47.3902 31.6683C47.475 31.6694 47.475 31.6694 47.5615 31.6705C47.734 31.6718 47.734 31.6718 47.9683 31.6404C48.162 31.35 48.1452 31.1996 48.1473 30.8525C48.1478 30.7964 48.1483 30.7404 48.1488 30.6826C48.1503 30.4973 48.1506 30.3121 48.1508 30.1268C48.1513 29.998 48.1518 29.8693 48.1524 29.7406C48.1533 29.4708 48.1536 29.201 48.1535 28.9312C48.1535 28.5852 48.1556 28.2393 48.1583 27.8933C48.1601 27.6275 48.1604 27.3617 48.1603 27.0959C48.1605 26.9683 48.1612 26.8407 48.1624 26.7131C48.1639 26.5348 48.1635 26.3567 48.1625 26.1784C48.1627 26.0769 48.163 25.9755 48.1632 25.8709C48.147 25.6228 48.147 25.6228 47.9912 25.4749C47.7816 25.3761 47.6389 25.3609 47.4074 25.3604C47.3268 25.3596 47.2463 25.3588 47.1633 25.358C47.0335 25.3583 47.0335 25.3583 46.9011 25.3587C46.8119 25.3579 46.7228 25.357 46.6309 25.3561C46.2492 25.3525 45.8675 25.3517 45.4858 25.3505C45.2072 25.3493 44.9287 25.3467 44.6501 25.3441C44.5201 25.3444 44.5201 25.3444 44.3875 25.3448C44.267 25.3436 44.267 25.3436 44.1441 25.3424C44.0734 25.3422 44.0027 25.3421 43.9299 25.3419C43.7496 25.3123 43.7496 25.3123 43.6097 25.211C43.4445 24.9784 43.4764 24.7228 43.5152 24.4529C43.5861 24.216 43.6816 23.9943 43.7837 23.7693C43.8343 23.6543 43.8846 23.5391 43.9348 23.4239C43.9686 23.3488 43.9686 23.3488 44.003 23.2723C44.3126 22.4994 44.2161 21.514 43.896 20.7661C43.8735 20.7195 43.8509 20.6729 43.8277 20.6248C43.8019 20.6248 43.7761 20.6248 43.7496 20.6248ZM37.0308 25.5467C37.0308 27.4803 37.0308 29.4139 37.0308 31.4061C37.6496 31.4061 38.2683 31.4061 38.9058 31.4061C38.9058 29.4725 38.9058 27.5389 38.9058 25.5467C38.2871 25.5467 37.6683 25.5467 37.0308 25.5467Z" fill="white"/>
<path d="M24.5312 30.0293C24.7656 30.0781 24.7656 30.0781 24.9951 30.21C25.4058 30.8696 24.9887 32.0099 24.8438 32.7344C25.282 32.7344 25.7203 32.7344 26.1719 32.7344C26.1944 32.5475 26.217 32.3605 26.2402 32.168C26.2906 31.7655 26.3418 31.3631 26.4014 30.9619C26.4117 30.8907 26.4221 30.8195 26.4328 30.7462C26.4924 30.5161 26.5829 30.3506 26.7188 30.1562C26.9417 30.0448 27.0964 30.0539 27.3438 30.0781C27.5684 30.1855 27.5684 30.1855 27.7344 30.3906C27.8723 31.0101 27.7046 32.1688 27.4219 32.7344C27.4794 32.7331 27.5369 32.7319 27.5962 32.7307C27.8571 32.7258 28.118 32.7227 28.3789 32.7197C28.4694 32.7178 28.56 32.7158 28.6533 32.7138C28.7404 32.713 28.8275 32.7123 28.9172 32.7115C28.9974 32.7103 29.0776 32.709 29.1602 32.7078C29.4082 32.7385 29.5117 32.7933 29.6875 32.9687C29.7656 33.2324 29.7656 33.2324 29.7656 33.5156C29.6276 33.7345 29.5289 33.8684 29.2969 33.9844C29.1381 33.991 28.9791 33.9927 28.8202 33.992C28.6782 33.9916 28.6782 33.9916 28.5333 33.9912C28.434 33.9906 28.3347 33.9899 28.2324 33.9893C28.1325 33.9889 28.0326 33.9886 27.9297 33.9882C27.6823 33.9873 27.4349 33.986 27.1875 33.9844C27.1828 34.0475 27.178 34.1107 27.1732 34.1757C27.1633 34.301 27.1633 34.301 27.1533 34.4287C27.1438 34.5524 27.1438 34.5524 27.1341 34.6786C27.1121 34.8946 27.078 35.1007 27.0312 35.3125C27.1353 35.31 27.1353 35.31 27.2414 35.3075C27.4994 35.3022 27.7574 35.2983 28.0154 35.2953C28.127 35.2938 28.2385 35.2916 28.3501 35.2889C28.5107 35.2851 28.6712 35.2834 28.8318 35.282C28.9283 35.2803 29.0249 35.2787 29.1244 35.277C29.4217 35.3191 29.5093 35.3881 29.6875 35.625C29.7794 35.9129 29.7918 36.0377 29.6631 36.3135C29.5312 36.4844 29.5312 36.4844 29.375 36.5625C29.1812 36.5693 28.9896 36.5715 28.7958 36.5701C28.7388 36.57 28.6818 36.5699 28.623 36.5698C28.4407 36.5694 28.2585 36.5684 28.0762 36.5674C27.9527 36.567 27.8292 36.5666 27.7057 36.5663C27.4027 36.5655 27.0998 36.5641 26.7969 36.5625C26.7906 36.6113 26.7843 36.6601 26.7778 36.7104C26.7488 36.9346 26.7191 37.1587 26.6895 37.3828C26.6746 37.4979 26.6746 37.4979 26.6595 37.6154C26.5025 38.7936 26.5025 38.7936 26.2354 39.1064C25.9424 39.2562 25.7821 39.2277 25.4688 39.1406C25.3153 39.022 25.2445 38.9531 25.2032 38.7619C25.2103 38.0957 25.2456 37.165 25.5469 36.5625C25.1086 36.5625 24.6703 36.5625 24.2188 36.5625C24.1933 36.729 24.1678 36.8954 24.1415 37.067C24.1162 37.2283 24.0905 37.3897 24.0647 37.551C24.047 37.663 24.0297 37.7751 24.0127 37.8872C23.9882 38.0485 23.9624 38.2096 23.9365 38.3707C23.9213 38.4676 23.9062 38.5646 23.8906 38.6645C23.828 38.9067 23.7959 38.9999 23.5938 39.1406C23.273 39.2297 23.1185 39.2577 22.8223 39.0967C22.6209 38.8657 22.6081 38.7393 22.5781 38.4375C22.5979 38.2122 22.5979 38.2122 22.6389 37.9816C22.6532 37.8985 22.6676 37.8154 22.6823 37.7298C22.6979 37.6443 22.7135 37.5588 22.7295 37.4707C22.7447 37.3834 22.76 37.2961 22.7757 37.2061C22.8133 36.9914 22.8517 36.7769 22.8906 36.5625C22.8359 36.5645 22.7811 36.5666 22.7247 36.5687C22.4757 36.5768 22.2267 36.5819 21.9775 36.5869C21.8914 36.5902 21.8052 36.5935 21.7165 36.5968C21.0766 36.6065 21.0766 36.6065 20.7632 36.3803C20.625 36.1719 20.625 36.1719 20.5762 35.9375C20.6258 35.6992 20.6856 35.5616 20.8627 35.393C21.2283 35.2006 21.6937 35.2746 22.0947 35.2881C22.1936 35.2898 22.2924 35.2916 22.3943 35.2934C22.6379 35.298 22.8815 35.305 23.125 35.3125C23.2023 34.8742 23.2797 34.4359 23.3594 33.9844C23.1208 33.9885 23.1208 33.9885 22.8775 33.9926C22.7226 33.9942 22.5677 33.9959 22.4129 33.9972C22.3056 33.9984 22.1984 34 22.0912 34.0021C21.9366 34.0049 21.7821 34.0061 21.6275 34.0073C21.5346 34.0085 21.4418 34.0097 21.3461 34.011C21.0691 33.9818 20.9242 33.9163 20.7031 33.75C20.5917 33.5271 20.6008 33.3723 20.625 33.125C20.7446 32.9165 20.7446 32.9165 20.9375 32.7344C21.1578 32.6994 21.3299 32.6884 21.5491 32.6962C21.6076 32.6968 21.6661 32.6973 21.7264 32.6979C21.9127 32.7001 22.0989 32.705 22.2852 32.71C22.4117 32.7119 22.5382 32.7137 22.6648 32.7153C22.9745 32.7196 23.2841 32.7263 23.5938 32.7344C23.5983 32.6748 23.6028 32.6152 23.6074 32.5538C23.6459 32.0658 23.6907 31.5819 23.7695 31.0986C23.7771 31.0428 23.7846 30.9869 23.7924 30.9294C23.8689 30.4651 24.0492 30.1297 24.5312 30.0293ZM24.6094 33.9844C24.5836 34.102 24.5578 34.2196 24.5312 34.3408C24.5167 34.407 24.5022 34.4732 24.4873 34.5413C24.4394 34.8179 24.4394 34.8179 24.4531 35.3125C24.8656 35.3125 25.2781 35.3125 25.7031 35.3125C25.8051 34.9555 25.8791 34.6952 25.9082 34.3408C25.9179 34.2232 25.9275 34.1056 25.9375 33.9844C25.4992 33.9844 25.0609 33.9844 24.6094 33.9844Z" fill="white"/>
<path d="M35.0827 43.9209C35.3822 44.0558 35.5371 44.0771 35.8493 43.9698C35.957 43.9231 36.0644 43.8759 36.1716 43.8282C36.8247 43.6376 37.3656 43.7814 37.9685 44.0625C38.4964 44.3642 38.734 44.9004 38.9353 45.4493C39.0994 46.2399 38.912 46.9857 38.4961 47.6572C37.9374 48.4628 37.1501 48.9908 36.3054 49.4571C36.1806 49.5263 36.0582 49.5997 35.936 49.6735C35.6291 49.7948 35.4744 49.7737 35.156 49.6875C34.9184 49.5775 34.6987 49.446 34.4772 49.3067C34.4157 49.2683 34.3542 49.2299 34.2909 49.1904C33.347 48.586 32.5694 47.8806 32.1872 46.7969C32.0499 46.0854 32.0909 45.3819 32.4445 44.7379C33.053 43.8683 34.0855 43.4517 35.0827 43.9209ZM33.5935 45.3125C33.3778 45.6409 33.3358 45.9429 33.3933 46.3282C33.6243 47.2468 34.4383 47.7597 35.1758 48.2639C35.4523 48.387 35.5714 48.3721 35.8591 48.2813C36.0512 48.1682 36.2233 48.0568 36.4011 47.9248C36.4491 47.8896 36.4971 47.8544 36.5466 47.818C37.078 47.4187 37.5265 47.0114 37.71 46.3517C37.7684 45.9163 37.6626 45.585 37.4069 45.2344C37.1379 45.0431 36.9698 45 36.6403 45C36.3129 45.1371 36.1493 45.3472 35.9372 45.625C35.7115 45.7379 35.5625 45.7326 35.3122 45.7032C35.112 45.5274 35.112 45.5274 34.9216 45.3125C34.7085 45.1104 34.5924 45.0105 34.3015 44.961C33.9866 45.0124 33.8324 45.1001 33.5935 45.3125Z" fill="white"/>
</g>
<defs>
<clipPath id="clip0_2093_89">
<rect width="40" height="40" fill="white" transform="translate(15 15)"/>
</clipPath>
</defs>
</svg>
