<svg width="12" height="12" viewBox="0 0 12 12" fill="none" xmlns="http://www.w3.org/2000/svg">
<path d="M10.5926 1.28361C10.5623 0.953666 10.4025 0.649173 10.1482 0.43675C9.89395 0.224327 9.56588 0.121268 9.2358 0.150121L2.19301 0.781788C2.02949 0.796454 1.87046 0.843183 1.725 0.919308C1.57954 0.995433 1.4505 1.09946 1.34525 1.22546C1.13268 1.47991 1.0299 1.80839 1.05952 2.13863C1.08914 2.46887 1.24873 2.77382 1.50319 2.98639C1.75765 3.19896 2.08612 3.30174 2.41636 3.27212L6.4533 2.91005L0.694817 9.80325C0.482275 10.0577 0.379507 10.3861 0.409122 10.7163C0.438738 11.0465 0.59831 11.3514 0.852734 11.564C1.10716 11.7765 1.43559 11.8793 1.76579 11.8496C2.09598 11.82 2.40089 11.6605 2.61343 11.406L8.37191 4.51283L8.73398 8.54976C8.74865 8.71328 8.79538 8.87231 8.8715 9.01777C8.94763 9.16323 9.05166 9.29227 9.17765 9.39752C9.30365 9.50277 9.44914 9.58218 9.60582 9.63121C9.76251 9.68023 9.92731 9.69792 10.0908 9.68325C10.2543 9.66859 10.4134 9.62186 10.5588 9.54573C10.7043 9.46961 10.8333 9.36558 10.9386 9.23958C11.0438 9.11359 11.1232 8.9681 11.1723 8.81141C11.2213 8.65473 11.239 8.48992 11.2243 8.32641L10.5926 1.28361Z" fill="black"/>
</svg>
