<svg width="15" height="15" viewBox="0 0 15 15" fill="none" xmlns="http://www.w3.org/2000/svg">
<path d="M7.2944 0.911621C8.98709 0.911621 10.6105 1.58404 11.8074 2.78095C13.0043 3.97786 13.6767 5.60123 13.6767 7.29391C13.6767 8.9866 13.0043 10.61 11.8074 11.8069C10.6105 13.0038 8.98709 13.6762 7.2944 13.6762C5.60171 13.6762 3.97835 13.0038 2.78144 11.8069C1.58453 10.61 0.912109 8.9866 0.912109 7.29391C0.912109 5.60123 1.58453 3.97786 2.78144 2.78095C3.97835 1.58404 5.60171 0.911621 7.2944 0.911621ZM6.49935 8.55305L5.08157 7.13436C5.03074 7.08353 4.9704 7.04321 4.90399 7.0157C4.83759 6.9882 4.76641 6.97404 4.69453 6.97404C4.62265 6.97404 4.55147 6.9882 4.48507 7.0157C4.41866 7.04321 4.35832 7.08353 4.30749 7.13436C4.20484 7.23701 4.14717 7.37623 4.14717 7.5214C4.14717 7.66657 4.20484 7.80579 4.30749 7.90844L6.11277 9.71372C6.16345 9.7648 6.22374 9.80535 6.29017 9.83302C6.3566 9.86069 6.42785 9.87493 6.49981 9.87493C6.57177 9.87493 6.64302 9.86069 6.70944 9.83302C6.77587 9.80535 6.83617 9.7648 6.88685 9.71372L10.625 5.9746C10.6766 5.92399 10.7175 5.86367 10.7456 5.79714C10.7737 5.73061 10.7883 5.65918 10.7887 5.58697C10.789 5.51475 10.775 5.44319 10.7476 5.3764C10.7201 5.30961 10.6797 5.24892 10.6287 5.19783C10.5776 5.14673 10.517 5.10625 10.4502 5.07871C10.3835 5.05117 10.3119 5.03712 10.2397 5.03737C10.1675 5.03762 10.096 5.05217 10.0295 5.08017C9.96292 5.10817 9.90256 5.14908 9.85188 5.20052L6.49935 8.55305Z" fill="black"/>
</svg>
