<svg width="82" height="82" viewBox="0 0 82 82" fill="none" xmlns="http://www.w3.org/2000/svg">
<g filter="url(#filter0_d_2043_11)">
<rect x="4" width="74" height="74" rx="37" fill="#000003" shape-rendering="crispEdges"/>
<path fill-rule="evenodd" clip-rule="evenodd" d="M26.8993 17.5964C29.6376 14.8739 34.1466 15.3577 36.4393 18.4222L39.2788 22.2112C41.1463 24.7042 40.9798 28.1872 38.7636 30.3899L38.2281 30.9254C38.1673 31.1502 38.1612 31.3863 38.2101 31.6139C38.3518 32.5319 39.1191 34.4759 42.3321 37.6709C45.5451 40.8659 47.5026 41.6309 48.4341 41.7749C48.6688 41.8221 48.9112 41.8152 49.1428 41.7547L50.0608 40.8412C52.0318 38.8837 55.0558 38.5169 57.4948 39.8422L61.7923 42.1822C65.4756 44.1802 66.4048 49.1842 63.3898 52.1834L60.1926 55.3604C59.1846 56.3617 57.8301 57.1964 56.1786 57.3517C52.1061 57.7319 42.6178 57.2459 32.6436 47.3302C23.3353 38.0737 21.5488 30.0007 21.3216 26.0227C21.2091 24.0112 22.1586 22.3102 23.3691 21.1087L26.8993 17.5964ZM33.7393 20.4449C32.5986 18.9217 30.4746 18.8002 29.2776 19.9904L25.7451 23.5004C25.0026 24.2384 24.6471 25.0529 24.6921 25.8314C24.8721 28.9927 26.3121 36.2759 35.0241 44.9384C44.1636 54.0239 52.6033 54.2962 55.8658 53.9902C56.5318 53.9294 57.1933 53.5829 57.8121 52.9687L61.0071 49.7894C62.3076 48.4979 62.0218 46.1444 60.1813 45.1454L55.8838 42.8077C54.6958 42.1642 53.3053 42.3757 52.4413 43.2352L51.4176 44.2544L50.2251 43.0574C51.4176 44.2544 51.4153 44.2567 51.4131 44.2567L51.4108 44.2612L51.4041 44.2679L51.3883 44.2814L51.3546 44.3129C51.2596 44.4011 51.1572 44.4809 51.0486 44.5514C50.8686 44.6707 50.6301 44.8034 50.3308 44.9137C49.7233 45.1409 48.9178 45.2624 47.9233 45.1094C45.9726 44.8102 43.3873 43.4804 39.9516 40.0649C36.5181 36.6494 35.1771 34.0799 34.8756 32.1314C34.7203 31.1369 34.8441 30.3314 35.0736 29.7239C35.1999 29.3821 35.3807 29.063 35.6091 28.7789L35.6811 28.7002L35.7126 28.6664L35.7261 28.6529L35.7328 28.6462L35.7373 28.6417L36.3853 27.9982C37.3483 27.0374 37.4833 25.4467 36.5766 24.2339L33.7393 20.4449Z" fill="white"/>
</g>
<defs>
<filter id="filter0_d_2043_11" x="0" y="0" width="82" height="82" filterUnits="userSpaceOnUse" color-interpolation-filters="sRGB">
<feFlood flood-opacity="0" result="BackgroundImageFix"/>
<feColorMatrix in="SourceAlpha" type="matrix" values="0 0 0 0 0 0 0 0 0 0 0 0 0 0 0 0 0 0 127 0" result="hardAlpha"/>
<feOffset dy="4"/>
<feGaussianBlur stdDeviation="2"/>
<feComposite in2="hardAlpha" operator="out"/>
<feColorMatrix type="matrix" values="0 0 0 0 0 0 0 0 0 0 0 0 0 0 0 0 0 0 0.25 0"/>
<feBlend mode="normal" in2="BackgroundImageFix" result="effect1_dropShadow_2043_11"/>
<feBlend mode="normal" in="SourceGraphic" in2="effect1_dropShadow_2043_11" result="shape"/>
</filter>
</defs>
</svg>
