<svg width="66" height="70" viewBox="0 0 66 70" fill="none" xmlns="http://www.w3.org/2000/svg">
<rect width="66" height="69.4898" rx="33" fill="black"/>
<g clip-path="url(#clip0_2067_393)">
<path d="M40.977 50.3988L39.5408 46.1631L42.3899 39.6651C42.4236 39.5883 42.4412 39.5055 42.4416 39.4216C42.4419 39.3378 42.4249 39.2548 42.3917 39.1778L35.6058 23.5771C35.5582 23.4682 35.4798 23.3755 35.3803 23.3105C35.2807 23.2455 35.1643 23.211 35.0455 23.2113L32.0659 23.2267C31.9477 23.2285 31.8326 23.2645 31.7346 23.3305C31.6366 23.3965 31.5598 23.4895 31.5137 23.5982L24.8893 39.2682C24.8568 39.3455 24.8407 39.4287 24.8419 39.5125C24.8431 39.5963 24.8615 39.679 24.8961 39.7554L27.8121 46.2236L26.4197 50.4739C26.3876 50.5663 26.3781 50.6649 26.3922 50.7617C26.4062 50.8584 26.4432 50.9504 26.5002 51.0298C26.5211 51.0548 26.5444 51.0777 26.5695 51.0984C26.6848 51.2115 26.8402 51.2743 27.0017 51.273L40.4034 51.2038C40.5003 51.205 40.5961 51.1831 40.6829 51.1399C40.7696 51.0967 40.8448 51.0335 40.9023 50.9554C40.9584 50.8754 40.9945 50.7831 41.0076 50.6862C41.0206 50.5893 41.0101 50.4907 40.977 50.3988ZM32.4775 24.4406L32.954 24.4403L33.0114 35.5609C32.1265 35.7183 31.3328 36.202 30.7874 36.9164C30.242 37.6308 29.9844 38.5238 30.0657 39.4189C30.147 40.314 30.5613 41.1461 31.2265 41.7505C31.8917 42.3549 32.7595 42.6876 33.6583 42.683C34.5571 42.6784 35.4214 42.3366 36.0804 41.7254C36.7393 41.1141 37.145 40.2779 37.217 39.382C37.2891 38.4861 37.0223 37.5958 36.4696 36.8871C35.9168 36.1784 35.1182 35.7029 34.2317 35.5546L34.1743 24.434L34.6507 24.4294L41.1661 39.4191L38.4875 45.5281L28.8588 45.5779L26.1172 39.4969L32.4775 24.4406ZM35.3063 37.4076C35.6953 37.7937 35.9384 38.3028 35.9941 38.848C36.0499 39.3932 35.9149 39.9409 35.6121 40.3978C35.3094 40.8546 34.8576 41.1924 34.3337 41.3535C33.8099 41.5146 33.2463 41.4891 32.7392 41.2813C32.232 41.0735 31.8126 40.6964 31.5523 40.214C31.292 39.7317 31.2071 39.1741 31.3118 38.6361C31.4166 38.0981 31.7046 37.6131 32.1269 37.2637C32.5491 36.9143 33.0795 36.7221 33.6275 36.7199C34.2562 36.7176 34.86 36.965 35.3063 37.4076ZM27.8427 50.0505L28.904 46.8109L38.4464 46.7616L39.5411 49.9901L27.8427 50.0505Z" fill="#F7F7F7"/>
<path d="M18.7931 34.3918C18.7877 34.2315 18.7212 34.0792 18.6072 33.9664C18.4931 33.8535 18.3402 33.7885 18.1798 33.7848L17.0845 33.7905C17.5888 30.343 19.156 27.1387 21.5678 24.6242C23.9796 22.1097 27.1157 20.4102 30.5392 19.7627C30.731 20.4112 31.1278 20.9802 31.6701 21.3842C32.2124 21.7883 32.8711 22.0057 33.5474 22.0039C34.2237 22.0021 34.8812 21.7812 35.4214 21.3743C35.9616 20.9674 36.3554 20.3963 36.5437 19.7468C39.9737 20.3589 43.1273 22.0259 45.5649 24.5154C48.0025 27.0048 49.6027 30.1928 50.1426 33.6349L49.0451 33.6254C48.884 33.6269 48.7301 33.6921 48.6169 33.8066C48.5602 33.8633 48.5151 33.9307 48.4844 34.0049C48.4537 34.079 48.438 34.1585 48.4381 34.2387L48.4727 38.0268C48.474 38.1879 48.539 38.3419 48.6535 38.4552C48.7681 38.5686 48.9228 38.632 49.0839 38.6316L52.8655 38.6121C52.9456 38.6117 53.0249 38.5956 53.0988 38.5645C53.1727 38.5335 53.2397 38.4882 53.2961 38.4312C53.3525 38.3743 53.3971 38.3068 53.4273 38.2326C53.4576 38.1584 53.4729 38.0789 53.4725 37.9988L53.4529 34.2172C53.4516 34.0561 53.3866 33.902 53.2721 33.7887C53.1576 33.6754 53.0029 33.612 52.8418 33.6123L51.3843 33.6155C50.9222 30.461 49.6288 27.4864 47.6369 24.997C45.645 22.5076 43.0265 20.5933 40.0501 19.4505L45.0154 19.4314C45.1647 19.8472 45.4565 20.1966 45.839 20.4177C46.2215 20.6388 46.6699 20.7173 47.1047 20.6393C47.5396 20.5612 47.9327 20.3316 48.2144 19.9913C48.4961 19.651 48.6481 19.2218 48.6435 18.7801C48.6389 18.3383 48.4779 17.9125 48.1892 17.5781C47.9005 17.2437 47.5026 17.0224 47.0663 16.9534C46.6299 16.8844 46.1832 16.9723 45.8054 17.2013C45.4277 17.4304 45.1432 17.7858 45.0026 18.2046L36.605 18.2545C36.4611 17.5435 36.0748 16.9045 35.5121 16.4466C34.9493 15.9888 34.2451 15.7406 33.5197 15.7443C32.7942 15.7481 32.0926 16.0036 31.5346 16.4672C30.9767 16.9308 30.597 17.5737 30.4604 18.2862L22.0628 18.3231C21.9163 17.9052 21.6263 17.5527 21.2445 17.3283C20.8626 17.1039 20.4136 17.0222 19.9772 17.0976C19.5407 17.173 19.1452 17.4008 18.8608 17.7403C18.5764 18.0798 18.4216 18.5092 18.4239 18.9521C18.4262 19.395 18.5854 19.8227 18.8733 20.1593C19.1612 20.4958 19.5591 20.7195 19.9962 20.7904C20.4334 20.8613 20.8816 20.7749 21.2611 20.5466C21.6406 20.3183 21.9269 19.9629 22.0691 19.5434L27.0344 19.5242C24.0696 20.6962 21.4702 22.6361 19.503 25.1447C17.5358 27.6534 16.2717 30.6404 15.8405 33.7991L14.3809 33.8088C14.2198 33.8101 14.0658 33.8751 13.9525 33.9896C13.8391 34.1041 13.7757 34.2588 13.7761 34.4199L13.7956 38.2015C13.796 38.363 13.8603 38.5177 13.9746 38.6318C14.0318 38.6885 14.0996 38.7332 14.1741 38.7636C14.2486 38.7939 14.3284 38.8092 14.4089 38.8085L18.1927 38.7911C18.3538 38.7898 18.5078 38.7248 18.6212 38.6103C18.7345 38.4958 18.7979 38.3411 18.7975 38.18L18.7931 34.3918ZM52.2466 34.8336L52.2598 37.3949L49.6985 37.4081L49.6853 34.8468L52.2466 34.8336ZM46.7639 18.1589C46.8925 18.1577 47.0187 18.1948 47.1262 18.2654C47.2338 18.336 47.318 18.437 47.3681 18.5555C47.4182 18.674 47.4319 18.8047 47.4076 18.9311C47.3833 19.0574 47.322 19.1737 47.2315 19.2652C47.1409 19.3566 47.0253 19.4191 46.8992 19.4448C46.7731 19.4704 46.6422 19.458 46.5232 19.4091C46.4042 19.3602 46.3023 19.2771 46.2306 19.1703C46.1589 19.0634 46.1205 18.9377 46.1204 18.809C46.1199 18.7241 46.1362 18.6399 46.1683 18.5612C46.2003 18.4825 46.2476 18.411 46.3074 18.3506C46.3671 18.2902 46.4382 18.2422 46.5165 18.2093C46.5949 18.1764 46.6789 18.1593 46.7639 18.1589ZM33.526 16.9703C33.777 16.9684 34.0259 17.0161 34.2585 17.1107C34.491 17.2053 34.7025 17.3449 34.881 17.5214C35.0594 17.698 35.2011 17.9081 35.2981 18.1397C35.3951 18.3712 35.4454 18.6196 35.4461 18.8706C35.4483 19.2489 35.3383 19.6193 35.13 19.935C34.9217 20.2507 34.6244 20.4975 34.2758 20.6442C33.9271 20.7909 33.5428 20.8309 33.1714 20.7591C32.8001 20.6873 32.4583 20.5069 32.1895 20.2408C31.9207 19.9748 31.7368 19.6349 31.6612 19.2643C31.5855 18.8937 31.6215 18.509 31.7646 18.1589C31.9077 17.8087 32.1514 17.5089 32.465 17.2973C32.7785 17.0857 33.1478 16.9719 33.526 16.9703ZM20.31 19.5913C20.1485 19.5775 19.9979 19.5038 19.888 19.3847C19.778 19.2656 19.7166 19.1097 19.7158 18.9476C19.7149 18.7854 19.7747 18.6289 19.8835 18.5086C19.9922 18.3884 20.1419 18.3132 20.3033 18.2977C20.4744 18.2983 20.6384 18.3661 20.76 18.4864C20.8816 18.6068 20.9511 18.7701 20.9534 18.9412C20.9539 19.0261 20.9377 19.1103 20.9056 19.189C20.8735 19.2677 20.8262 19.3392 20.7665 19.3996C20.7067 19.46 20.6356 19.508 20.5573 19.5409C20.479 19.5738 20.3949 19.5909 20.31 19.5913ZM15.0257 37.5829L15.0124 35.0215L17.5738 35.0083L17.587 37.5696L15.0257 37.5829Z" fill="#F7F7F7"/>
</g>
<defs>
<clipPath id="clip0_2067_393">
<rect width="39.0283" height="39.0283" fill="white" transform="translate(33.4541 3) rotate(44.7041)"/>
</clipPath>
</defs>
</svg>
