<svg width="66" height="71" viewBox="0 0 66 71" fill="none" xmlns="http://www.w3.org/2000/svg">
<rect y="0.600586" width="66" height="69.4898" rx="33" fill="black"/>
<g clip-path="url(#clip0_2037_18)">
<path d="M40.978 50.9993L39.5418 46.7636L42.3908 40.2657C42.4246 40.1889 42.4422 40.1061 42.4425 40.0222C42.4428 39.9384 42.4259 39.8554 42.3926 39.7784L35.6067 24.1777C35.5592 24.0687 35.4808 23.9761 35.3812 23.9111C35.2817 23.8461 35.1653 23.8116 35.0464 23.8119L32.0668 23.8273C31.9487 23.8291 31.8336 23.8651 31.7356 23.9311C31.6376 23.9971 31.5608 24.0901 31.5146 24.1988L24.8902 39.8688C24.8578 39.9461 24.8417 40.0293 24.8429 40.1131C24.844 40.1969 24.8625 40.2796 24.8971 40.356L27.8131 46.8242L26.4207 51.0745C26.3886 51.1668 26.3791 51.2655 26.3931 51.3623C26.4071 51.459 26.4442 51.5509 26.5012 51.6304C26.5221 51.6553 26.5453 51.6783 26.5705 51.699C26.6858 51.8121 26.8412 51.8749 27.0026 51.8736L40.4043 51.8044C40.5013 51.8056 40.5971 51.7837 40.6838 51.7405C40.7706 51.6973 40.8458 51.6341 40.9033 51.556C40.9594 51.476 40.9955 51.3837 41.0085 51.2868C41.0215 51.1899 41.0111 51.0913 40.978 50.9993ZM32.4784 25.0412L32.9549 25.0409L33.0124 36.1615C32.1275 36.3189 31.3338 36.8026 30.7884 37.517C30.2429 38.2314 29.9854 39.1244 30.0667 40.0195C30.148 40.9146 30.5622 41.7466 31.2275 42.351C31.8927 42.9554 32.7605 43.2882 33.6593 43.2836C34.5581 43.2789 35.4224 42.9372 36.0814 42.326C36.7403 41.7147 37.1459 40.8785 37.218 39.9826C37.2901 39.0867 37.0233 38.1963 36.4705 37.4876C35.9177 36.7789 35.1191 36.3035 34.2327 36.1552L34.1752 25.0346L34.6517 25.03L41.1671 40.0197L38.4885 46.1287L28.8598 46.1785L26.1182 40.0974L32.4784 25.0412ZM35.3073 38.0082C35.6963 38.3943 35.9393 38.9033 35.9951 39.4486C36.0509 39.9938 35.9159 40.5415 35.6131 40.9983C35.3103 41.4552 34.8585 41.7929 34.3347 41.954C33.8108 42.1152 33.2473 42.0897 32.7402 41.8819C32.233 41.6741 31.8136 41.297 31.5533 40.8146C31.293 40.3323 31.208 39.7747 31.3128 39.2367C31.4176 38.6987 31.7056 38.2137 32.1279 37.8643C32.5501 37.5149 33.0804 37.3227 33.6285 37.3205C34.2571 37.3182 34.8609 37.5656 35.3073 38.0082ZM27.8437 50.6511L28.905 47.4115L38.4474 47.3622L39.5421 50.5906L27.8437 50.6511Z" fill="#F7F7F7"/>
<path d="M18.7936 34.9924C18.7882 34.8321 18.7217 34.6798 18.6076 34.5669C18.4936 34.4541 18.3407 34.3891 18.1803 34.3854L17.085 34.3911C17.5893 30.9436 19.1565 27.7393 21.5683 25.2248C23.98 22.7103 27.1162 21.0108 30.5397 20.3633C30.7315 21.0118 31.1283 21.5808 31.6706 21.9848C32.2129 22.3889 32.8716 22.6063 33.5479 22.6045C34.2242 22.6027 34.8817 22.3818 35.4219 21.9749C35.9621 21.5679 36.3559 20.9969 36.5442 20.3474C39.9742 20.9595 43.1277 22.6265 45.5654 25.116C48.003 27.6054 49.6032 30.7934 50.143 34.2355L49.0456 34.226C48.8845 34.2275 48.7306 34.2927 48.6174 34.4072C48.5607 34.4639 48.5156 34.5313 48.4849 34.6054C48.4542 34.6796 48.4385 34.7591 48.4386 34.8393L48.4732 38.6273C48.4745 38.7884 48.5395 38.9425 48.654 39.0558C48.7685 39.1691 48.9232 39.2326 49.0843 39.2322L52.866 39.2127C52.9461 39.2123 53.0254 39.1961 53.0993 39.1651C53.1732 39.1341 53.2402 39.0888 53.2966 39.0318C53.353 38.9749 53.3976 38.9074 53.4278 38.8332C53.4581 38.759 53.4734 38.6795 53.473 38.5994L53.4534 34.8177C53.4521 34.6566 53.3871 34.5026 53.2726 34.3893C53.1581 34.276 53.0034 34.2125 52.8423 34.2129L51.3848 34.2161C50.9227 31.0616 49.6293 28.0869 47.6374 25.5976C45.6455 23.1082 43.0269 21.1939 40.0506 20.0511L45.0159 20.032C45.1652 20.4477 45.457 20.7972 45.8395 21.0183C46.222 21.2394 46.6704 21.3179 47.1052 21.2398C47.5401 21.1618 47.9332 20.9322 48.2149 20.5919C48.4965 20.2515 48.6486 19.8224 48.644 19.3807C48.6393 18.9389 48.4784 18.5131 48.1897 18.1787C47.901 17.8443 47.5031 17.623 47.0668 17.554C46.6304 17.485 46.1837 17.5729 45.8059 17.8019C45.4281 18.031 45.1437 18.3864 45.0031 18.8052L36.6055 18.8551C36.4616 18.144 36.0753 17.505 35.5125 17.0472C34.9498 16.5894 34.2456 16.3412 33.5202 16.3449C32.7947 16.3487 32.0931 16.6042 31.5351 17.0678C30.9772 17.5314 30.5975 18.1743 30.4609 18.8868L22.0633 18.9237C21.9167 18.5057 21.6268 18.1533 21.245 17.9289C20.8631 17.7045 20.4141 17.6228 19.9776 17.6982C19.5412 17.7736 19.1457 18.0013 18.8613 18.3409C18.5769 18.6804 18.4221 19.1098 18.4244 19.5527C18.4267 19.9955 18.5859 20.4233 18.8738 20.7599C19.1617 21.0964 19.5595 21.32 19.9967 21.391C20.4339 21.4619 20.8821 21.3755 21.2616 21.1472C21.6411 20.9189 21.9274 20.5634 22.0696 20.144L27.0349 20.1248C24.0701 21.2968 21.4707 23.2367 19.5035 25.7453C17.5363 28.254 16.2722 31.241 15.841 34.3997L14.3814 34.4094C14.2203 34.4107 14.0663 34.4757 13.953 34.5902C13.8396 34.7047 13.7762 34.8594 13.7766 35.0205L13.7961 38.8021C13.7964 38.9636 13.8608 39.1183 13.9751 39.2324C14.0323 39.2891 14.1001 39.3338 14.1746 39.3642C14.2491 39.3945 14.3289 39.4098 14.4094 39.4091L18.1932 39.3917C18.3543 39.3904 18.5083 39.3254 18.6216 39.2109C18.735 39.0964 18.7984 38.9417 18.798 38.7806L18.7936 34.9924ZM52.2471 35.4341L52.2603 37.9955L49.699 38.0087L49.6857 35.4474L52.2471 35.4341ZM46.7644 18.7595C46.893 18.7583 47.0191 18.7954 47.1267 18.866C47.2343 18.9366 47.3185 19.0375 47.3686 19.1561C47.4187 19.2746 47.4324 19.4053 47.4081 19.5317C47.3838 19.658 47.3225 19.7743 47.2319 19.8658C47.1414 19.9572 47.0258 20.0197 46.8997 20.0454C46.7736 20.071 46.6427 20.0586 46.5237 20.0097C46.4047 19.9608 46.3028 19.8777 46.2311 19.7709C46.1594 19.664 46.121 19.5383 46.1209 19.4096C46.1204 19.3247 46.1367 19.2405 46.1687 19.1618C46.2008 19.0831 46.2481 19.0116 46.3079 18.9512C46.3676 18.8908 46.4387 18.8428 46.517 18.8099C46.5954 18.777 46.6794 18.7599 46.7644 18.7595ZM33.5265 17.5709C33.7775 17.569 34.0264 17.6167 34.259 17.7113C34.4915 17.8059 34.703 17.9454 34.8814 18.122C35.0599 18.2986 35.2016 18.5087 35.2986 18.7402C35.3956 18.9718 35.4459 19.2202 35.4466 19.4712C35.4488 19.8495 35.3388 20.2199 35.1305 20.5356C34.9222 20.8513 34.6249 21.0981 34.2763 21.2448C33.9276 21.3915 33.5433 21.4314 33.1719 21.3596C32.8006 21.2878 32.4588 21.1075 32.19 20.8414C31.9212 20.5753 31.7373 20.2355 31.6617 19.8649C31.586 19.4943 31.622 19.1096 31.7651 18.7594C31.9082 18.4093 32.1519 18.1095 32.4655 17.8979C32.779 17.6863 33.1483 17.5725 33.5265 17.5709ZM20.3105 20.1919C20.1489 20.1781 19.9984 20.1044 19.8885 19.9853C19.7785 19.8662 19.7171 19.7102 19.7162 19.5481C19.7154 19.386 19.7752 19.2295 19.8839 19.1092C19.9927 18.989 20.1424 18.9137 20.3038 18.8983C20.4749 18.8989 20.6389 18.9667 20.7605 19.087C20.8821 19.2074 20.9515 19.3707 20.9539 19.5417C20.9544 19.6267 20.9382 19.7109 20.9061 19.7896C20.874 19.8682 20.8267 19.9398 20.767 20.0002C20.7072 20.0606 20.6361 20.1086 20.5578 20.1415C20.4795 20.1744 20.3954 20.1915 20.3105 20.1919ZM15.0262 38.1834L15.0129 35.6221L17.5743 35.6089L17.5875 38.1702L15.0262 38.1834Z" fill="#F7F7F7"/>
</g>
<defs>
<clipPath id="clip0_2037_18">
<rect width="39.0283" height="39.0283" fill="white" transform="translate(33.4541 3.60059) rotate(44.7041)"/>
</clipPath>
</defs>
</svg>
