<svg width="107" height="105" viewBox="0 0 107 105" fill="none" xmlns="http://www.w3.org/2000/svg">
<g filter="url(#filter0_d_2059_352)">
<rect x="11" y="7" width="85" height="83" rx="41.5" fill="#F7F7F7"/>
<rect x="10" y="6" width="87" height="85" rx="42.5" stroke="black" stroke-width="2"/>
<path d="M42.01 27.3829C41.9242 27.4574 41.8384 27.5318 41.75 27.6085C38.2962 30.6557 36.0524 34.777 35.592 39.3907C35.3911 44.0195 36.3271 48.3935 39.2151 52.1231C39.2905 52.2216 39.3659 52.3201 39.4435 52.4216C39.8086 52.8833 40.1732 53.2864 40.6233 53.6672C41.177 54.1563 41.4687 54.5228 41.5401 55.2858C41.549 55.5827 41.5425 55.8777 41.5345 56.1745C41.5347 56.3389 41.5354 56.5033 41.5366 56.6677C41.5384 57.1105 41.5326 57.553 41.5255 57.9957C41.5195 58.4605 41.5208 58.9252 41.5213 59.3899C41.5214 60.2691 41.5153 61.1481 41.5069 62.0272C41.4947 63.318 41.4905 64.6088 41.4876 65.8997C41.4874 65.9945 41.4872 66.0893 41.487 66.187C41.4866 66.376 41.4862 66.565 41.4859 66.7541C41.4846 67.3066 41.4811 67.859 41.4757 68.4115C41.4726 68.7549 41.4707 69.0983 41.469 69.4417C41.4679 69.6007 41.4663 69.7597 41.4641 69.9187C41.4611 70.136 41.4601 70.3532 41.4595 70.5706C41.4578 70.7528 41.4578 70.7528 41.4561 70.9387C41.5191 71.519 41.7746 71.9354 42.217 72.3087C42.6334 72.4475 43.0198 72.5035 43.4403 72.3383C43.9724 72.0648 44.4768 71.7593 44.9796 71.4353C45.1542 71.3238 45.3289 71.2125 45.5036 71.1013C45.5933 71.0441 45.683 70.987 45.7754 70.9281C46.2153 70.6494 46.6584 70.3759 47.1017 70.1025C47.8904 69.6155 48.6773 69.1257 49.4631 68.6339C50.2794 68.1231 51.0965 67.6139 51.9151 67.107C52.0049 67.0514 52.0946 66.9959 52.1871 66.9386C52.3493 66.8383 52.5118 66.7385 52.6747 66.6394C52.8425 66.5347 53.005 66.4216 53.1658 66.3064C53.3913 66.1761 53.3913 66.1761 53.6288 66.2506C54.0443 66.4801 54.4531 66.7183 54.8589 66.9647C54.9503 67.0199 55.0417 67.0751 55.1359 67.1319C55.8309 67.5532 56.5194 67.9842 57.2053 68.42C57.8029 68.7997 58.4035 69.1742 59.006 69.5461C60.0268 70.1765 61.0446 70.8118 62.0617 71.4482C62.1551 71.5065 62.2484 71.5648 62.3446 71.6249C62.5151 71.7318 62.6852 71.8393 62.8548 71.9476C62.9646 72.0174 62.9646 72.0174 63.0766 72.0887C63.1394 72.129 63.2022 72.1693 63.267 72.2108C63.668 72.4406 64.0205 72.4429 64.4729 72.4122C64.9051 72.2766 65.0605 72.1506 65.3172 71.7752C65.6303 71.1122 65.554 70.3803 65.5399 69.6648C65.5383 69.5019 65.5368 69.3391 65.5356 69.1763C65.5326 68.8268 65.5285 68.4773 65.5235 68.1278C65.516 67.5738 65.5128 67.0198 65.5106 66.4657C65.5037 64.8905 65.4946 63.3154 65.4729 61.7404C65.461 60.8695 65.4546 59.9989 65.4544 59.128C65.4541 58.668 65.451 58.2084 65.4409 57.7485C65.3007 55.5962 65.3007 55.5962 66.1517 53.7242C66.4127 53.4873 66.6841 53.2833 66.9774 53.0884C69.5862 51.1744 70.8544 46.654 71.3377 43.6371C71.9594 38.9608 70.6972 34.163 67.897 30.3788C67.4606 29.8089 66.9818 29.2838 66.4794 28.7719C66.3473 28.6365 66.2185 28.4981 66.0899 28.3594C63.4398 25.5659 59.4926 23.7389 55.6741 23.3458C55.5678 23.3344 55.4616 23.3231 55.3522 23.3114C50.6247 22.879 45.6117 24.2072 42.01 27.3829ZM64.8503 31.0558C67.5687 34.1037 68.9116 38.1278 68.7063 42.1916C68.5792 44.1735 68.048 46.1038 67.1643 47.879C67.108 47.9943 67.0517 48.1096 66.9936 48.2284C66.2808 49.6205 65.3464 50.7956 64.2658 51.9161C64.1548 52.037 64.1548 52.037 64.0414 52.1603C61.7416 54.594 58.066 56.2496 54.7275 56.38C53.1611 56.4153 51.614 56.4327 50.0842 56.0567C50.0136 56.0401 49.943 56.0234 49.8703 56.0062C48.0528 55.5649 46.3186 54.7736 44.8049 53.6759C44.7455 53.6329 44.6861 53.59 44.6248 53.5458C41.1385 50.9923 39.0855 47.3558 38.3869 43.1173C38.3316 42.7365 38.2967 42.363 38.2834 41.9786C38.2793 41.8715 38.2752 41.7643 38.2709 41.6539C38.1915 37.5581 39.7151 33.6601 42.532 30.699C42.6339 30.5942 42.7359 30.4894 42.8381 30.3849C42.8946 30.3259 42.9512 30.267 43.0094 30.2063C45.0809 28.0794 47.8411 26.8695 50.7053 26.2442C50.821 26.2187 50.9367 26.1933 51.0559 26.167C56.1536 25.2578 61.3922 27.305 64.8503 31.0558ZM62.7131 56.6778C62.7131 60.5721 62.7131 64.4663 62.7131 68.4786C62.0697 68.163 62.0697 68.163 61.4612 67.807C61.388 67.7603 61.3148 67.7136 61.2394 67.6655C61.1234 67.5908 61.1234 67.5908 61.0051 67.5146C60.8309 67.4035 60.6566 67.2924 60.4823 67.1814C60.3448 67.0938 60.3448 67.0938 60.2046 67.0043C59.7076 66.6886 59.2079 66.3771 58.7084 66.0654C58.4988 65.9345 58.2892 65.8036 58.0796 65.6728C57.9741 65.6069 57.8686 65.5411 57.76 65.4733C57.2026 65.1252 56.6454 64.7769 56.0881 64.4286C55.4888 64.054 55.4888 64.054 55.2088 63.8797C55.0421 63.775 54.8761 63.6691 54.7111 63.5615C54.6392 63.515 54.5674 63.4684 54.4933 63.4205C54.4321 63.3802 54.371 63.3398 54.3079 63.2982C53.9565 63.1119 53.5819 63.0406 53.1897 63.0958C52.5812 63.3415 52.0313 63.7057 51.4817 64.0598C51.3074 64.1709 51.1332 64.282 50.9588 64.393C50.8214 64.4806 50.8214 64.4806 50.6812 64.5701C50.1842 64.8858 49.6845 65.1973 49.1849 65.509C48.9751 65.64 48.7652 65.771 48.5553 65.902C48.4498 65.9679 48.3443 66.0337 48.2356 66.1016C47.9024 66.3098 47.5693 66.5183 47.2363 66.7269C47.126 66.796 47.0157 66.8651 46.902 66.9363C46.6926 67.0673 46.4833 67.1985 46.2741 67.3297C45.325 68.057 45.325 68.057 44.2873 68.4786C44.2873 64.5843 44.2873 60.6901 44.2873 56.6778C44.6109 56.8073 44.9115 56.9323 45.2202 57.087C49.7331 59.3138 54.7141 59.6545 59.4916 58.0652C60.4482 57.7342 61.3355 57.3335 62.2154 56.8335C62.4815 56.6615 62.4815 56.6615 62.7131 56.6778Z" fill="black"/>
<path d="M53.4999 28.3791C53.4145 28.3783 53.3291 28.3775 53.2411 28.3767C52.8954 28.4318 52.7383 28.5034 52.4647 28.7285C52.2532 29.0411 52.0888 29.3742 51.9212 29.7119C51.8698 29.8131 51.8183 29.9144 51.7653 30.0187C51.5822 30.3812 51.4021 30.7451 51.2225 31.1094C51.1672 31.2212 51.1672 31.2212 51.1108 31.3354C50.8274 31.9084 50.5457 32.4823 50.265 33.0567C50.2251 33.1383 50.1851 33.2199 50.144 33.304C50.0302 33.5369 49.917 33.77 49.804 34.0033C49.7695 34.074 49.7349 34.1446 49.6993 34.2174C49.4627 34.7086 49.4627 34.7086 49.4627 34.9394C49.3314 34.9547 49.2001 34.9699 49.0649 34.9855C47.7334 35.1438 46.4046 35.323 45.0775 35.5142C44.892 35.5406 44.7064 35.5666 44.5207 35.5921C44.2559 35.6285 43.9914 35.6668 43.7269 35.7057C43.6085 35.7214 43.6085 35.7214 43.4877 35.7374C42.947 35.8198 42.5671 35.976 42.1131 36.2851C41.8408 36.7277 41.733 37.1104 41.829 37.6306C42.1359 38.4555 43.1272 39.1783 43.7456 39.7943C43.9179 39.9661 44.0896 40.1384 44.2613 40.3107C45.6528 41.7032 45.6528 41.7032 46.2641 42.1304C46.492 42.3099 46.634 42.4468 46.7713 42.7031C46.7779 42.984 46.7779 42.984 46.7135 43.2991C46.6919 43.428 46.6703 43.5569 46.6481 43.6897C46.6202 43.8439 46.5923 43.9981 46.5643 44.1523C46.5317 44.3387 46.4992 44.525 46.4668 44.7114C46.3938 45.1289 46.3204 45.5463 46.2467 45.9637C46.2277 46.0711 46.2087 46.1785 46.1892 46.2891C46.1501 46.5089 46.1106 46.7286 46.0708 46.9482C46.0127 47.2697 45.9562 47.5914 45.8999 47.9133C45.8819 48.0103 45.8639 48.1074 45.8454 48.2074C45.6116 49.5682 45.6116 49.5682 45.9541 50.1404C46.2007 50.4464 46.3934 50.6486 46.787 50.7067C47.6745 50.7517 48.2668 50.4535 49.0293 50.0268C49.1511 49.9609 49.273 49.8951 49.3951 49.8296C49.6431 49.6959 49.8903 49.5608 50.1368 49.4243C50.4784 49.2354 50.8211 49.0486 51.1643 48.8627C51.5485 48.6543 51.9319 48.4446 52.3147 48.2335C52.395 48.1901 52.4752 48.1467 52.558 48.1019C52.7445 47.9993 52.9275 47.8902 53.1096 47.7798C53.3906 47.6463 53.3906 47.6463 53.6778 47.7212C54.161 47.9455 54.6336 48.186 55.1043 48.4353C55.208 48.4897 55.3116 48.5442 55.4183 48.6002C56.2607 49.0444 57.0977 49.4982 57.932 49.9572C58.1795 50.0933 58.4275 50.2284 58.6756 50.3633C58.8436 50.4559 58.8436 50.4559 59.0149 50.5505C59.4856 50.7564 59.9324 50.7538 60.4354 50.6738C60.79 50.5032 60.9998 50.2694 61.1774 49.9151C61.4429 49.0634 61.0998 47.9704 60.9425 47.1122C60.8999 46.8729 60.8573 46.6335 60.8147 46.3941C60.7477 46.0215 60.6805 45.6489 60.6129 45.2764C60.5474 44.9137 60.4828 44.5508 60.4184 44.1879C60.3978 44.0762 60.3772 43.9645 60.356 43.8494C60.3377 43.7457 60.3194 43.6419 60.3005 43.5351C60.284 43.4441 60.2676 43.3532 60.2506 43.2594C60.2274 43.0028 60.2418 42.8401 60.3319 42.5996C60.5188 42.3876 60.7046 42.193 60.9077 41.9979C60.9595 41.9466 61.0114 41.8953 61.0648 41.8424C61.3501 41.5629 61.6431 41.2964 61.9465 41.0368C62.5077 40.5494 63.0327 40.0253 63.559 39.5009C63.7361 39.3248 63.9142 39.1499 64.0924 38.9749C64.206 38.862 64.3195 38.7491 64.4329 38.6361C64.5123 38.5586 64.5123 38.5586 64.5933 38.4795C64.9513 38.1193 65.1785 37.8055 65.2129 37.2912C65.1709 36.8578 65.1307 36.6428 64.8542 36.2916C64.42 35.9584 64.0824 35.8411 63.5402 35.7621C63.4149 35.7434 63.2895 35.7248 63.1603 35.7056C63.0253 35.6863 62.8903 35.667 62.7512 35.6471C62.6109 35.6265 62.4707 35.6059 62.3305 35.5853C62.037 35.5422 61.7435 35.4996 61.45 35.4574C61.0737 35.4033 60.6976 35.3484 60.3215 35.2931C59.9625 35.2404 59.6036 35.1882 59.2446 35.136C59.1761 35.126 59.1076 35.116 59.0371 35.1056C58.8434 35.0774 58.6496 35.0495 58.4558 35.0217C58.3456 35.0057 58.2354 34.9898 58.1218 34.9734C57.8475 34.9394 57.8475 34.9394 57.537 34.9394C57.512 34.8564 57.4871 34.7733 57.4614 34.6878C57.2996 34.2332 57.0948 33.8093 56.8823 33.3766C56.8164 33.2414 56.8164 33.2414 56.7492 33.1035C56.6562 32.9129 56.563 32.7225 56.4696 32.5321C56.3289 32.2453 56.189 31.9581 56.0491 31.6708C55.7888 31.1372 55.5249 30.6054 55.2596 30.0742C55.2057 29.965 55.2057 29.965 55.1507 29.8536C55.0563 29.6634 54.9597 29.4743 54.8629 29.2853C54.8113 29.1836 54.7597 29.0818 54.7065 28.977C54.397 28.5286 54.0344 28.3741 53.4999 28.3791ZM53.6034 32.9726C53.6367 33.0429 53.67 33.1132 53.7043 33.1856C54.8244 35.5456 54.8244 35.5456 55.3114 36.4792C55.3722 36.5964 55.4331 36.7136 55.4958 36.8343C55.7471 37.2284 55.9487 37.3891 56.4063 37.5033C56.5294 37.522 56.6524 37.5408 56.7792 37.5601C56.88 37.5759 56.88 37.5759 56.9828 37.5921C57.1976 37.6255 57.4125 37.6573 57.6275 37.6891C57.768 37.7107 57.9085 37.7325 58.0489 37.7544C58.9468 37.8933 59.8463 38.0216 60.7459 38.1484C60.3681 38.614 59.9629 39.0384 59.5317 39.4545C59.4778 39.5068 59.424 39.5591 59.3686 39.6129C59.1436 39.8313 58.9187 40.0497 58.6912 40.2655C58.5235 40.425 58.3579 40.5865 58.1924 40.7484C58.0939 40.843 57.9954 40.9376 57.8939 41.0351C57.462 41.5844 57.2841 42.1038 57.3612 42.8034C57.3912 42.9872 57.4236 43.1707 57.4581 43.3537C57.4746 43.4512 57.4912 43.5487 57.5082 43.6491C57.5609 43.9574 57.6168 44.2651 57.6728 44.5729C57.7094 44.783 57.7457 44.9932 57.7818 45.2035C57.8703 45.7162 57.9617 46.2283 58.0545 46.7402C57.6457 46.6123 57.2739 46.4638 56.8957 46.2631C56.7965 46.2108 56.6974 46.1585 56.5953 46.1046C56.4918 46.0496 56.3884 45.9946 56.2818 45.938C56.0678 45.826 55.8538 45.714 55.6397 45.602C55.3085 45.4276 54.979 45.2514 54.6531 45.0674C54.4986 44.9827 54.4986 44.9827 54.3409 44.8963C54.2579 44.8487 54.1749 44.8011 54.0894 44.752C53.3265 44.5276 52.6896 44.8296 52.0184 45.1876C51.918 45.2431 51.8176 45.2985 51.7142 45.3557C51.6099 45.4116 51.5056 45.4676 51.3981 45.5252C50.9472 45.7676 50.499 46.0148 50.0511 46.2627C49.9317 46.3285 49.8122 46.3942 49.6892 46.462C49.5882 46.5193 49.4872 46.5765 49.3831 46.6355C49.2688 46.6873 49.2688 46.6873 49.1522 46.7402C49.0839 46.7061 49.0156 46.6719 48.9452 46.6367C48.964 46.5298 48.9828 46.4229 49.0022 46.3127C49.0726 45.911 49.1417 45.5091 49.2105 45.1071C49.2403 44.9341 49.2704 44.7611 49.3009 44.5882C49.7333 42.1312 49.7333 42.1312 49.4158 41.4476C49.0405 41.0245 48.6494 40.6219 48.2464 40.2252C48.1263 40.1052 48.1263 40.1052 48.0038 39.9828C47.5611 39.5434 47.1109 39.1241 46.6285 38.7284C46.4469 38.5488 46.3545 38.3816 46.2538 38.1484C46.4409 38.1226 46.4409 38.1226 46.6319 38.0963C47.0971 38.032 47.5622 37.9662 48.0272 37.9001C48.2281 37.8718 48.429 37.8437 48.6299 37.8161C48.9197 37.7762 49.2092 37.735 49.4987 37.6935C49.6324 37.6755 49.6324 37.6755 49.7687 37.6572C50.9703 37.4816 50.9703 37.4816 51.3865 37.0447C51.421 36.9815 51.4555 36.9183 51.491 36.8533C51.5318 36.7802 51.5727 36.7072 51.6147 36.6319C51.6768 36.5115 51.6768 36.5115 51.7401 36.3887C51.7857 36.3021 51.8314 36.2156 51.8784 36.1264C52.0253 35.8423 52.1679 35.5563 52.3094 35.2694C52.3571 35.1741 52.4047 35.0787 52.4538 34.9805C52.783 34.3178 53.0942 33.6481 53.3963 32.9726C53.4647 32.9726 53.533 32.9726 53.6034 32.9726Z" fill="black"/>
</g>
<defs>
<filter id="filter0_d_2059_352" x="0" y="0" width="107" height="105" filterUnits="userSpaceOnUse" color-interpolation-filters="sRGB">
<feFlood flood-opacity="0" result="BackgroundImageFix"/>
<feColorMatrix in="SourceAlpha" type="matrix" values="0 0 0 0 0 0 0 0 0 0 0 0 0 0 0 0 0 0 127 0" result="hardAlpha"/>
<feMorphology radius="3" operator="erode" in="SourceAlpha" result="effect1_dropShadow_2059_352"/>
<feOffset dy="4"/>
<feGaussianBlur stdDeviation="6"/>
<feComposite in2="hardAlpha" operator="out"/>
<feColorMatrix type="matrix" values="0 0 0 0 0 0 0 0 0 0 0 0 0 0 0 0 0 0 0.12 0"/>
<feBlend mode="normal" in2="BackgroundImageFix" result="effect1_dropShadow_2059_352"/>
<feBlend mode="normal" in="SourceGraphic" in2="effect1_dropShadow_2059_352" result="shape"/>
</filter>
</defs>
</svg>
