<svg width="82" height="82" viewBox="0 0 82 82" fill="none" xmlns="http://www.w3.org/2000/svg">
<g filter="url(#filter0_d_2154_52)">
<rect x="4" width="74" height="74" rx="37" fill="#000003" shape-rendering="crispEdges"/>
<path d="M31.55 14.5H50.45C57.65 14.5 63.5 20.35 63.5 27.55V46.45C63.5 49.9111 62.1251 53.2304 59.6777 55.6777C57.2304 58.1251 53.9111 59.5 50.45 59.5H31.55C24.35 59.5 18.5 53.65 18.5 46.45V27.55C18.5 24.0889 19.8749 20.7696 22.3223 18.3223C24.7696 15.8749 28.0889 14.5 31.55 14.5ZM31.1 19C28.9517 19 26.8915 19.8534 25.3724 21.3724C23.8534 22.8915 23 24.9517 23 27.1V46.9C23 51.3775 26.6225 55 31.1 55H50.9C53.0483 55 55.1085 54.1466 56.6276 52.6276C58.1466 51.1085 59 49.0483 59 46.9V27.1C59 22.6225 55.3775 19 50.9 19H31.1ZM52.8125 22.375C53.5584 22.375 54.2738 22.6713 54.8012 23.1988C55.3287 23.7262 55.625 24.4416 55.625 25.1875C55.625 25.9334 55.3287 26.6488 54.8012 27.1762C54.2738 27.7037 53.5584 28 52.8125 28C52.0666 28 51.3512 27.7037 50.8238 27.1762C50.2963 26.6488 50 25.9334 50 25.1875C50 24.4416 50.2963 23.7262 50.8238 23.1988C51.3512 22.6713 52.0666 22.375 52.8125 22.375ZM41 25.75C43.9837 25.75 46.8452 26.9353 48.955 29.045C51.0647 31.1548 52.25 34.0163 52.25 37C52.25 39.9837 51.0647 42.8452 48.955 44.955C46.8452 47.0647 43.9837 48.25 41 48.25C38.0163 48.25 35.1548 47.0647 33.045 44.955C30.9353 42.8452 29.75 39.9837 29.75 37C29.75 34.0163 30.9353 31.1548 33.045 29.045C35.1548 26.9353 38.0163 25.75 41 25.75ZM41 30.25C39.2098 30.25 37.4929 30.9612 36.227 32.227C34.9612 33.4929 34.25 35.2098 34.25 37C34.25 38.7902 34.9612 40.5071 36.227 41.773C37.4929 43.0388 39.2098 43.75 41 43.75C42.7902 43.75 44.5071 43.0388 45.773 41.773C47.0388 40.5071 47.75 38.7902 47.75 37C47.75 35.2098 47.0388 33.4929 45.773 32.227C44.5071 30.9612 42.7902 30.25 41 30.25Z" fill="#F5F5F5"/>
</g>
<defs>
<filter id="filter0_d_2154_52" x="0" y="0" width="82" height="82" filterUnits="userSpaceOnUse" color-interpolation-filters="sRGB">
<feFlood flood-opacity="0" result="BackgroundImageFix"/>
<feColorMatrix in="SourceAlpha" type="matrix" values="0 0 0 0 0 0 0 0 0 0 0 0 0 0 0 0 0 0 127 0" result="hardAlpha"/>
<feOffset dy="4"/>
<feGaussianBlur stdDeviation="2"/>
<feComposite in2="hardAlpha" operator="out"/>
<feColorMatrix type="matrix" values="0 0 0 0 0 0 0 0 0 0 0 0 0 0 0 0 0 0 0.25 0"/>
<feBlend mode="normal" in2="BackgroundImageFix" result="effect1_dropShadow_2154_52"/>
<feBlend mode="normal" in="SourceGraphic" in2="effect1_dropShadow_2154_52" result="shape"/>
</filter>
</defs>
</svg>
