<svg width="62" height="60" viewBox="0 0 62 60" fill="none" xmlns="http://www.w3.org/2000/svg">
<path d="M43.8603 30.679C43.1319 36.7741 39.1596 39.2096 37.4439 40.9776C35.7257 42.7507 36.0334 43.1038 36.1489 45.7042C36.1681 46.0259 36.1216 46.3482 36.0122 46.6512C35.9028 46.9541 35.7328 47.2314 35.5128 47.4658C35.2927 47.7003 35.0272 47.887 34.7325 48.0144C34.4379 48.1418 34.1205 48.2072 33.7998 48.2066H26.9834C26.6629 48.2061 26.3459 48.1399 26.0516 48.0121C25.7574 47.8844 25.4922 47.6977 25.2721 47.4636C25.0521 47.2294 24.8818 46.9526 24.7717 46.6501C24.6616 46.3476 24.614 46.0258 24.6318 45.7042C24.6318 43.1527 24.8677 42.56 23.3393 40.9776C21.3902 39.0189 16.805 36.2535 16.805 28.6482C16.7932 26.7591 17.1711 24.888 17.9146 23.153C18.6582 21.4179 19.7514 19.8564 21.1252 18.567C22.4991 17.2776 24.1238 16.2882 25.897 15.6612C27.6703 15.0341 29.5535 14.783 31.4281 14.9237C33.3027 15.0644 35.128 15.5939 36.7888 16.4787C38.4497 17.3635 39.9101 18.5845 41.0781 20.0647C42.2462 21.545 43.0964 23.2523 43.5752 25.0791C44.054 26.9059 44.1511 28.8126 43.8603 30.679Z" stroke="black" stroke-width="3" stroke-linecap="round" stroke-linejoin="round"/>
<path d="M26.4429 48.0647V51.9614C26.4429 53.0258 27.0327 53.8995 27.7584 53.8995H33.0233C33.7542 53.8995 34.3415 53.0232 34.3415 51.9614V48.0647M28.3919 20.9009C26.8776 20.9016 25.4257 21.5066 24.3552 22.5828C23.2847 23.6591 22.6833 25.1186 22.6833 26.6403M49.195 29.1686H53.8982M44.4609 13.6744L47.7973 10.3214M47.0254 42.302L50.3618 45.6524M30.3922 4.61548V8.43748M13.0563 10.3188L16.3696 13.6744M10.4918 45.6524L13.8051 42.302M11.5894 29.1686H6.88867" stroke="black" stroke-width="3" stroke-linecap="round" stroke-linejoin="round"/>
</svg>
