<svg width="71" height="70" viewBox="0 0 71 70" fill="none" xmlns="http://www.w3.org/2000/svg">
<rect width="71" height="70" rx="35" fill="black"/>
<path d="M51.8118 41.4759C52.327 39.8116 52.5886 38.0758 52.5886 36.307C52.5886 34.5447 52.3289 32.8152 51.8168 31.1561C52.943 30.7135 53.9669 30.0048 54.8171 29.0625C56.2863 27.4348 57.0617 25.3053 57.0006 23.0672C56.8739 18.4464 53.1794 14.7956 48.7635 14.9274C46.6245 14.9914 44.6379 15.9233 43.1686 17.5513C42.4267 18.3735 41.8622 19.3237 41.4926 20.3512C39.9069 19.8156 38.2544 19.5437 36.5699 19.5437C34.8844 19.5437 33.2306 19.8163 31.6441 20.3525C30.4998 17.1835 27.5712 14.9238 24.1474 14.9238C19.7302 14.9238 16.1367 18.6846 16.1367 23.3071C16.1367 26.89 18.2962 29.9546 21.3243 31.1518C20.8115 32.8126 20.5514 34.5435 20.5514 36.307C20.5514 38.0758 20.813 39.8116 21.3282 41.4759C18.298 42.6721 16.1367 45.738 16.1367 49.3226C16.1367 50.5844 16.398 51.7977 16.9136 52.9283C16.9474 53.0026 16.9949 53.0692 17.0534 53.1243C17.1118 53.1793 17.1801 53.2218 17.2542 53.2493C17.3284 53.2768 17.407 53.2887 17.4855 53.2843C17.564 53.28 17.641 53.2596 17.712 53.2241C17.8553 53.1524 17.9655 53.0242 18.0185 52.8675C18.0715 52.7108 18.0629 52.5386 17.9946 52.3885C17.5564 51.4276 17.3343 50.3961 17.3343 49.3226C17.3343 45.3914 20.3907 42.193 24.1474 42.193C27.9043 42.193 30.9607 45.3914 30.9607 49.3226C30.9607 53.254 27.9043 56.4525 24.1474 56.4525C22.434 56.4525 20.7962 55.7843 19.5362 54.5711C19.2927 54.3368 18.9137 54.3534 18.69 54.608C18.6368 54.6686 18.5955 54.7395 18.5684 54.8168C18.5414 54.8941 18.5291 54.9762 18.5324 55.0584C18.5357 55.1406 18.5544 55.2214 18.5875 55.296C18.6206 55.3707 18.6674 55.4378 18.7253 55.4935C20.207 56.9202 22.1326 57.7058 24.1474 57.7058C27.5762 57.7058 30.5085 55.4393 31.649 52.2631C33.2337 52.7985 34.886 53.0703 36.5699 53.0703C38.2541 53.0703 39.9067 52.7985 41.4913 52.2634C42.632 55.4397 45.5643 57.7058 48.993 57.7058C53.4102 57.7058 57.0037 53.945 57.0037 49.3226C57.0037 45.738 54.8424 42.6718 51.8118 41.4759ZM44.0394 18.4117C45.2888 17.0272 46.9789 16.2347 48.7981 16.1801C48.864 16.1782 48.9299 16.1772 48.9958 16.1772C52.663 16.1772 55.6978 19.2425 55.8032 23.1028C55.8553 25.0063 55.196 26.8172 53.9466 28.2021C52.6972 29.5867 51.0071 30.3793 49.1879 30.4337C49.122 30.4357 49.0561 30.4367 48.9902 30.4367C45.3231 30.4367 42.2882 27.3715 42.1828 23.5111C42.1304 21.6075 42.79 19.7964 44.0394 18.4117ZM41.1554 51.0597C39.6799 51.5617 38.1402 51.8169 36.5699 51.8169C35.0002 51.8169 33.4605 51.5617 31.9849 51.0597C32.1003 50.4885 32.1584 49.9063 32.1583 49.3225C32.1583 44.7 28.5645 40.9396 24.1474 40.9396C23.5751 40.9396 23.0168 41.0032 22.4782 41.1231C21.9944 39.5733 21.749 37.956 21.749 36.307C21.749 34.6632 21.9932 33.0511 22.4738 31.5053C23.0239 31.6283 23.5849 31.6902 24.1474 31.69C25.5197 31.69 26.8735 31.3205 28.0633 30.6217C28.3516 30.4524 28.4541 30.0705 28.2923 29.7686C28.1304 29.4667 27.7655 29.3596 27.4771 29.529C26.4659 30.1227 25.3144 30.4367 24.1474 30.4367C20.3904 30.4367 17.3343 27.2383 17.3343 23.3068C17.3343 19.3756 20.3907 16.1772 24.1474 16.1772C27.9043 16.1772 30.9607 19.3756 30.9607 23.3071C30.9607 24.9519 30.4128 26.5564 29.4179 27.8258C29.2079 28.0932 29.2454 28.4881 29.5011 28.7077C29.6239 28.8131 29.7817 28.8631 29.9397 28.8467C30.0977 28.8304 30.2431 28.7491 30.3438 28.6206C31.5137 27.128 32.1583 25.2406 32.1583 23.3068C32.1583 22.7066 32.0969 22.1206 31.9818 21.5556C33.4585 21.0526 34.9992 20.7971 36.5699 20.7971C38.1402 20.7971 39.6803 21.0524 41.1564 21.5546C41.0244 22.2093 40.967 22.8781 40.9855 23.547C41.1099 28.0862 44.6779 31.6904 48.9899 31.69C49.5533 31.6901 50.1152 31.6286 50.6665 31.5066C51.1468 33.0518 51.3911 34.6639 51.3911 36.3071C51.3911 37.956 51.1453 39.5734 50.6619 41.1231C50.1133 41.0009 49.5539 40.9394 48.993 40.9396C44.5758 40.9396 40.9824 44.7001 40.9824 49.3226C40.9824 49.9183 41.0423 50.4993 41.1554 51.0597ZM48.993 56.4525C45.2361 56.4525 42.18 53.2541 42.18 49.3229C42.18 45.3914 45.2361 42.193 48.993 42.193C52.7499 42.193 55.8061 45.3914 55.8061 49.3229C55.8061 53.2541 52.7499 56.4525 48.993 56.4525Z" fill="white"/>
<path d="M28.2244 19.6077C28.1237 19.5359 28.0044 19.498 27.8825 19.4991C27.7606 19.5002 27.6419 19.5403 27.5424 19.6139C27.339 19.7639 27.1204 19.8899 26.8905 19.9895C26.0679 19.3158 24.8755 19.3237 24.0587 20.0669C23.6374 20.4498 23.3691 20.9844 23.307 21.5648C22.8685 21.4965 22.4478 21.3354 22.0707 21.0914C21.6936 20.8474 21.368 20.5256 21.1136 20.1455C21.0526 20.0549 20.9698 19.9828 20.8736 19.9366C20.7773 19.8903 20.6711 19.8715 20.5657 19.8822C20.4602 19.8929 20.3593 19.9327 20.2733 19.9975C20.1873 20.0624 20.1193 20.15 20.0762 20.2513C20.0592 20.2918 19.6562 21.2553 19.7076 22.4346C19.747 23.3371 20.0554 24.5004 21.1804 25.3986C20.774 25.5363 20.3477 25.598 19.9209 25.5808C19.7864 25.5753 19.6541 25.6175 19.5452 25.7004C19.4364 25.7833 19.3574 25.9022 19.3211 26.0379C19.2847 26.1735 19.2931 26.318 19.3448 26.4481C19.3966 26.5782 19.4887 26.6862 19.6063 26.7548C20.5457 27.3009 21.5521 27.5745 22.5354 27.5745C23.4801 27.5745 24.4033 27.3218 25.2248 26.8162C26.2549 26.182 27.0034 25.211 27.4098 24.0252C27.4226 23.9951 27.4332 23.9638 27.4417 23.9315C27.6506 23.2875 27.7601 22.5821 27.7601 21.834C27.7601 21.8014 27.7591 21.7684 27.7579 21.7357C28.1005 21.3131 28.3442 20.8126 28.4696 20.2741C28.4984 20.1501 28.4903 20.0199 28.4465 19.9009C28.4027 19.7818 28.3253 19.6795 28.2245 19.6077H28.2244ZM26.544 21.6385C26.5559 21.7038 26.5622 21.7713 26.5622 21.836C26.5622 22.4503 26.4748 23.0192 26.3086 23.5333C26.2995 23.5571 26.2919 23.5815 26.2858 23.6064C25.9749 24.5171 25.4088 25.2486 24.6176 25.7359C23.8935 26.1821 23.0623 26.372 22.2152 26.3077C22.4093 26.2071 22.5966 26.0928 22.7759 25.9657C22.8642 25.9028 22.9349 25.8164 22.9806 25.7154C23.0264 25.6144 23.0455 25.5025 23.036 25.3912C23.0265 25.2798 22.9888 25.1732 22.9266 25.0823C22.8645 24.9914 22.7803 24.9195 22.6827 24.8741C21.5646 24.3541 20.9667 23.5271 20.9059 22.4163C20.8948 22.2008 20.9021 21.9846 20.9277 21.7704C21.7514 22.4907 22.8065 22.8838 23.9077 22.854C24.0638 22.8498 24.2122 22.782 24.3212 22.665C24.4302 22.548 24.4913 22.3911 24.4913 22.2277V21.8389C24.4891 21.6826 24.5196 21.5277 24.5806 21.385C24.6416 21.2422 24.7317 21.1152 24.8446 21.0128C25.2726 20.6234 25.9231 20.6707 26.2952 21.1186C26.3682 21.2064 26.4633 21.2712 26.5697 21.3056C26.5326 21.4121 26.5238 21.5271 26.5441 21.6385H26.544ZM47.0221 23.8012H47.8711V27.5382C47.8711 27.7044 47.9342 27.8638 48.0465 27.9814C48.1588 28.0989 48.3111 28.1649 48.4699 28.1649C48.6287 28.1649 48.781 28.0989 48.8933 27.9814C49.0056 27.8638 49.0687 27.7044 49.0687 27.5382V23.8012H49.9934C50.324 23.8012 50.5922 23.5205 50.5922 23.1745C50.5922 22.8286 50.324 22.5479 49.9934 22.5479H49.0687V20.7945C49.0687 20.1926 49.5368 19.7026 50.1122 19.7026H50.8875C51.2182 19.7026 51.4863 19.4219 51.4863 19.0759C51.4863 18.9097 51.4232 18.7503 51.3109 18.6328C51.1986 18.5152 51.0463 18.4492 50.8875 18.4492H50.1122C48.8765 18.4492 47.8711 19.5012 47.8711 20.7945V22.5479H47.0221C46.6916 22.5479 46.4233 22.8286 46.4233 23.1745C46.4233 23.5205 46.6916 23.8012 47.0221 23.8012ZM22.7884 52.5636C22.931 52.5636 23.0734 52.5252 23.2004 52.4485L27.2763 49.9845C27.4015 49.9086 27.5054 49.7997 27.5777 49.6687C27.65 49.5376 27.6881 49.389 27.6883 49.2376C27.6883 48.9308 27.5305 48.6446 27.2763 48.4912L23.2004 46.0272C23.0752 45.9516 22.9331 45.9118 22.7886 45.9118C22.644 45.9118 22.502 45.9516 22.3767 46.0272C22.2515 46.103 22.1476 46.2119 22.0752 46.3429C22.0029 46.474 21.9647 46.6226 21.9644 46.774V51.7017C21.9644 52.0088 22.1225 52.2951 22.3767 52.4485C22.5018 52.5242 22.6438 52.5639 22.7884 52.5637V52.5636ZM23.162 47.4516L26.1174 49.2381L23.162 51.0244V47.4516ZM51.5947 44.8842H46.3906C45.4868 44.8842 44.7513 45.6537 44.7513 46.6V52.0454C44.7513 52.9916 45.4867 53.7613 46.3906 53.7613H51.5947C52.4985 53.7613 53.2338 52.9916 53.2338 52.0454V46.6C53.2338 45.6538 52.4985 44.8842 51.5947 44.8842ZM52.0362 52.0454C52.0361 52.168 51.9896 52.2855 51.9068 52.3722C51.8241 52.4589 51.7118 52.5077 51.5947 52.5079H46.3906C46.2734 52.5078 46.1611 52.459 46.0783 52.3723C45.9955 52.2856 45.949 52.168 45.9489 52.0454V46.6C45.949 46.4775 45.9956 46.3599 46.0784 46.2732C46.1612 46.1865 46.2735 46.1377 46.3906 46.1375H51.5947C51.7118 46.1378 51.824 46.1866 51.9068 46.2733C51.9895 46.36 52.0361 46.4775 52.0362 46.6V52.0454Z" fill="white"/>
<path d="M48.9935 47.4286C47.9955 47.4286 47.1833 48.2786 47.1833 49.3231C47.1833 50.3675 47.9955 51.2172 48.9935 51.2172C49.9915 51.2172 50.8036 50.3675 50.8036 49.3231C50.8036 48.2786 49.9915 47.4286 48.9935 47.4286ZM48.9935 49.9638C48.6558 49.9638 48.381 49.6762 48.381 49.3231C48.381 48.9696 48.6557 48.682 48.9935 48.682C49.3313 48.682 49.606 48.9695 49.606 49.3231C49.606 49.6762 49.3312 49.9638 48.9935 49.9638ZM40.9042 29.8053C40.7454 29.8053 40.5931 29.8713 40.4808 29.9888C40.3685 30.1063 40.3054 30.2657 40.3054 30.4319V30.713C39.4608 31.2341 38.5766 31.6816 37.6618 32.0509C36.9287 32.346 36.1777 32.5901 35.4138 32.7817C35.293 32.6837 35.1445 32.6304 34.9916 32.6302H32.2498C31.5874 32.6302 31.0488 33.1942 31.0488 33.8872V37.1783C31.0488 37.8716 31.5874 38.4353 32.2499 38.4353H32.7978L33.0055 42.6139C33.0096 42.6961 33.0291 42.7766 33.063 42.8509C33.0968 42.9251 33.1443 42.9917 33.2027 43.0468C33.2611 43.1018 33.3293 43.1443 33.4035 43.1718C33.4776 43.1993 33.5561 43.2112 33.6347 43.2069C33.7932 43.1983 33.942 43.1241 34.0483 43.0006C34.1546 42.8772 34.2097 42.7146 34.2015 42.5486L33.997 38.4353H34.9916C35.1504 38.4353 35.2965 38.3785 35.4136 38.2841C35.8997 38.4068 36.3807 38.5506 36.8554 38.7153C36.93 38.7412 37.0088 38.7515 37.0872 38.7455C37.1657 38.7396 37.2422 38.7175 37.3125 38.6806C37.3828 38.6437 37.4454 38.5926 37.4969 38.5304C37.5483 38.4681 37.5875 38.3959 37.6123 38.3178C37.6371 38.2396 37.6469 38.1572 37.6412 38.0751C37.6355 37.993 37.6144 37.9129 37.5792 37.8393C37.5439 37.7658 37.4951 37.7002 37.4356 37.6464C37.3761 37.5925 37.3071 37.5515 37.2325 37.5256C36.7227 37.3487 36.2061 37.1943 35.6839 37.0627V34.0034C36.5023 33.7982 37.3069 33.5366 38.0923 33.2204C38.8509 32.9142 39.59 32.5577 40.3052 32.1529V38.914C40.0427 38.7656 39.7769 38.6237 39.508 38.4884C39.4372 38.4527 39.3603 38.432 39.2818 38.4274C39.2033 38.4228 39.1246 38.4344 39.0504 38.4616C38.9762 38.4889 38.9079 38.5311 38.8493 38.586C38.7907 38.6409 38.743 38.7074 38.709 38.7815C38.6749 38.8557 38.6551 38.9362 38.6507 39.0184C38.6463 39.1006 38.6574 39.1828 38.6834 39.2605C38.7095 39.3382 38.7498 39.4098 38.8023 39.4711C38.8547 39.5324 38.9182 39.5824 38.9891 39.6181C39.4372 39.8443 39.8763 40.0897 40.3052 40.3538V40.6335C40.3052 40.7997 40.3682 40.9591 40.4805 41.0767C40.5928 41.1942 40.7452 41.2602 40.904 41.2602C41.0628 41.2602 41.2151 41.1942 41.3274 41.0767C41.4397 40.9591 41.5028 40.7997 41.5028 40.6335V30.4319C41.5028 30.3496 41.4874 30.2681 41.4573 30.1921C41.4273 30.116 41.3832 30.0469 41.3276 29.9887C41.272 29.9306 41.206 29.8844 41.1334 29.8529C41.0608 29.8214 40.9829 29.8052 40.9043 29.8052L40.9042 29.8053ZM34.4866 37.1816L32.2464 37.1783L32.2499 33.8836H34.4866V37.1816Z" fill="white"/>
</svg>
