<svg width="53" height="53" viewBox="0 0 53 53" fill="none" xmlns="http://www.w3.org/2000/svg">
<path d="M15.01 5.3829C14.9242 5.45736 14.8384 5.53182 14.75 5.60853C11.2962 8.65571 9.05245 12.777 8.59202 17.3907C8.39108 22.0195 9.32713 26.3935 12.2151 30.1231C12.2905 30.2216 12.3659 30.3201 12.4435 30.4216C12.8086 30.8833 13.1732 31.2864 13.6233 31.6672C14.177 32.1563 14.4687 32.5228 14.5401 33.2858C14.549 33.5827 14.5425 33.8777 14.5345 34.1745C14.5347 34.3389 14.5354 34.5033 14.5366 34.6677C14.5384 35.1105 14.5326 35.553 14.5255 35.9957C14.5195 36.4605 14.5208 36.9252 14.5213 37.3899C14.5214 38.2691 14.5153 39.1481 14.5069 40.0272C14.4947 41.318 14.4905 42.6088 14.4876 43.8997C14.4874 43.9945 14.4872 44.0893 14.487 44.187C14.4866 44.376 14.4862 44.565 14.4859 44.7541C14.4846 45.3066 14.4811 45.859 14.4757 46.4115C14.4726 46.7549 14.4707 47.0983 14.469 47.4417C14.4679 47.6007 14.4663 47.7597 14.4641 47.9187C14.4611 48.136 14.4601 48.3532 14.4595 48.5706C14.4578 48.7528 14.4578 48.7528 14.4561 48.9387C14.5191 49.519 14.7746 49.9354 15.217 50.3087C15.6334 50.4475 16.0198 50.5035 16.4403 50.3383C16.9724 50.0648 17.4768 49.7593 17.9796 49.4353C18.1542 49.3238 18.3289 49.2125 18.5036 49.1013C18.5933 49.0441 18.683 48.987 18.7754 48.9281C19.2153 48.6494 19.6584 48.3759 20.1017 48.1025C20.8904 47.6155 21.6773 47.1257 22.4631 46.6339C23.2794 46.1231 24.0965 45.6139 24.9151 45.107C25.0049 45.0514 25.0946 44.9959 25.1871 44.9386C25.3493 44.8383 25.5118 44.7385 25.6747 44.6394C25.8425 44.5347 26.005 44.4216 26.1658 44.3064C26.3913 44.1761 26.3913 44.1761 26.6288 44.2506C27.0443 44.4801 27.4531 44.7183 27.8589 44.9647C27.9503 45.0199 28.0417 45.0751 28.1359 45.1319C28.8309 45.5532 29.5194 45.9842 30.2053 46.42C30.8029 46.7997 31.4035 47.1742 32.006 47.5461C33.0268 48.1765 34.0446 48.8118 35.0617 49.4482C35.1551 49.5065 35.2484 49.5648 35.3446 49.6249C35.5151 49.7318 35.6852 49.8393 35.8548 49.9476C35.9646 50.0174 35.9646 50.0174 36.0766 50.0887C36.1394 50.129 36.2022 50.1693 36.267 50.2108C36.668 50.4406 37.0205 50.4429 37.4729 50.4122C37.9051 50.2766 38.0605 50.1506 38.3172 49.7752C38.6303 49.1122 38.554 48.3803 38.5399 47.6648C38.5383 47.5019 38.5368 47.3391 38.5356 47.1763C38.5326 46.8268 38.5285 46.4773 38.5235 46.1278C38.516 45.5738 38.5128 45.0198 38.5106 44.4657C38.5037 42.8905 38.4946 41.3154 38.4729 39.7404C38.461 38.8695 38.4546 37.9989 38.4544 37.128C38.4541 36.668 38.451 36.2084 38.4409 35.7485C38.3007 33.5962 38.3007 33.5962 39.1517 31.7242C39.4127 31.4873 39.6841 31.2833 39.9774 31.0884C42.5862 29.1744 43.8544 24.654 44.3377 21.6371C44.9594 16.9608 43.6972 12.163 40.897 8.37879C40.4606 7.80892 39.9818 7.28376 39.4794 6.77192C39.3473 6.63654 39.2185 6.49811 39.0899 6.35942C36.4398 3.56587 32.4926 1.73887 28.6741 1.34579C28.5678 1.33445 28.4616 1.32311 28.3522 1.31142C23.6247 0.879025 18.6117 2.2072 15.01 5.3829ZM37.8503 9.05584C40.5687 12.1037 41.9116 16.1278 41.7063 20.1916C41.5792 22.1735 41.048 24.1038 40.1643 25.879C40.108 25.9943 40.0517 26.1096 39.9936 26.2284C39.2808 27.6205 38.3464 28.7956 37.2658 29.9161C37.1548 30.037 37.1548 30.037 37.0414 30.1603C34.7416 32.594 31.066 34.2496 27.7275 34.38C26.1611 34.4153 24.614 34.4327 23.0842 34.0567C23.0136 34.0401 22.943 34.0234 22.8703 34.0062C21.0528 33.5649 19.3186 32.7736 17.8049 31.6759C17.7455 31.6329 17.6861 31.59 17.6248 31.5458C14.1385 28.9923 12.0855 25.3558 11.3869 21.1173C11.3316 20.7365 11.2967 20.363 11.2834 19.9786C11.2793 19.8715 11.2752 19.7643 11.2709 19.6539C11.1915 15.5581 12.7151 11.6601 15.532 8.69904C15.6339 8.59416 15.7359 8.48944 15.8381 8.38485C15.8946 8.32592 15.9512 8.26698 16.0094 8.20625C18.0809 6.07941 20.8411 4.8695 23.7053 4.24423C23.821 4.21874 23.9367 4.19325 24.0559 4.167C29.1536 3.25781 34.3922 5.30499 37.8503 9.05584ZM35.7131 34.6778C35.7131 38.5721 35.7131 42.4663 35.7131 46.4786C35.0697 46.163 35.0697 46.163 34.4612 45.807C34.388 45.7603 34.3148 45.7136 34.2394 45.6655C34.1234 45.5908 34.1234 45.5908 34.0051 45.5146C33.8309 45.4035 33.6566 45.2924 33.4823 45.1814C33.3448 45.0938 33.3448 45.0938 33.2046 45.0043C32.7076 44.6886 32.2079 44.3771 31.7084 44.0654C31.4988 43.9345 31.2892 43.8036 31.0796 43.6728C30.9741 43.6069 30.8686 43.5411 30.76 43.4733C30.2026 43.1252 29.6454 42.7769 29.0881 42.4286C28.4888 42.054 28.4888 42.054 28.2088 41.8797C28.0421 41.775 27.8761 41.6691 27.7111 41.5615C27.6392 41.515 27.5674 41.4684 27.4933 41.4205C27.4321 41.3802 27.371 41.3398 27.3079 41.2982C26.9565 41.1119 26.5819 41.0406 26.1897 41.0958C25.5812 41.3415 25.0313 41.7057 24.4817 42.0598C24.3074 42.1709 24.1332 42.282 23.9588 42.393C23.8214 42.4806 23.8214 42.4806 23.6812 42.5701C23.1842 42.8858 22.6845 43.1973 22.1849 43.509C21.9751 43.64 21.7652 43.771 21.5553 43.902C21.4498 43.9679 21.3443 44.0337 21.2356 44.1016C20.9024 44.3098 20.5693 44.5183 20.2363 44.7269C20.126 44.796 20.0157 44.8651 19.902 44.9363C19.6926 45.0673 19.4833 45.1985 19.2741 45.3297C18.325 46.057 18.325 46.057 17.2873 46.4786C17.2873 42.5843 17.2873 38.6901 17.2873 34.6778C17.6109 34.8073 17.9115 34.9323 18.2202 35.087C22.7331 37.3138 27.7141 37.6545 32.4916 36.0652C33.4482 35.7342 34.3355 35.3335 35.2154 34.8335C35.4815 34.6615 35.4815 34.6615 35.7131 34.6778Z" fill="black"/>
<path d="M26.4999 6.37914C26.4145 6.37833 26.3291 6.37753 26.2411 6.37671C25.8954 6.4318 25.7383 6.50337 25.4647 6.7285C25.2532 7.04105 25.0888 7.37419 24.9212 7.7119C24.8698 7.81314 24.8183 7.91437 24.7653 8.01868C24.5822 8.38119 24.4021 8.74511 24.2225 9.10936C24.1672 9.22123 24.1672 9.22123 24.1108 9.33535C23.8274 9.90844 23.5457 10.4823 23.265 11.0567C23.2251 11.1383 23.1851 11.2199 23.144 11.304C23.0302 11.5369 22.917 11.77 22.804 12.0033C22.7695 12.074 22.7349 12.1446 22.6993 12.2174C22.4627 12.7086 22.4627 12.7086 22.4627 12.9394C22.3314 12.9547 22.2001 12.9699 22.0649 12.9855C20.7334 13.1438 19.4046 13.323 18.0775 13.5142C17.892 13.5406 17.7064 13.5666 17.5207 13.5921C17.2559 13.6285 16.9914 13.6668 16.7269 13.7057C16.6085 13.7214 16.6085 13.7214 16.4877 13.7374C15.947 13.8198 15.5671 13.976 15.1131 14.2851C14.8408 14.7277 14.733 15.1104 14.829 15.6306C15.1359 16.4555 16.1272 17.1783 16.7456 17.7943C16.9179 17.9661 17.0896 18.1384 17.2613 18.3107C18.6528 19.7032 18.6528 19.7032 19.2641 20.1304C19.492 20.3099 19.634 20.4468 19.7713 20.7031C19.7779 20.984 19.7779 20.984 19.7135 21.2991C19.6919 21.428 19.6703 21.5569 19.6481 21.6897C19.6202 21.8439 19.5923 21.9981 19.5643 22.1523C19.5317 22.3387 19.4992 22.525 19.4668 22.7114C19.3938 23.1289 19.3204 23.5463 19.2467 23.9637C19.2277 24.0711 19.2087 24.1785 19.1892 24.2891C19.1501 24.5089 19.1106 24.7286 19.0708 24.9482C19.0127 25.2697 18.9562 25.5914 18.8999 25.9133C18.8819 26.0103 18.8639 26.1074 18.8454 26.2074C18.6116 27.5682 18.6116 27.5682 18.9541 28.1404C19.2007 28.4464 19.3934 28.6486 19.787 28.7067C20.6745 28.7517 21.2668 28.4535 22.0293 28.0268C22.1511 27.9609 22.273 27.8951 22.3951 27.8296C22.6431 27.6959 22.8903 27.5608 23.1368 27.4243C23.4784 27.2354 23.8211 27.0486 24.1643 26.8627C24.5485 26.6543 24.9319 26.4446 25.3147 26.2335C25.395 26.1901 25.4752 26.1467 25.558 26.1019C25.7445 25.9993 25.9275 25.8902 26.1096 25.7798C26.3906 25.6463 26.3906 25.6463 26.6778 25.7212C27.161 25.9455 27.6336 26.186 28.1043 26.4353C28.208 26.4897 28.3116 26.5442 28.4183 26.6002C29.2607 27.0444 30.0977 27.4982 30.932 27.9572C31.1795 28.0933 31.4275 28.2284 31.6756 28.3633C31.8436 28.4559 31.8436 28.4559 32.0149 28.5505C32.4856 28.7564 32.9324 28.7538 33.4354 28.6738C33.79 28.5032 33.9998 28.2694 34.1774 27.9151C34.4429 27.0634 34.0998 25.9704 33.9425 25.1122C33.8999 24.8729 33.8573 24.6335 33.8147 24.3941C33.7477 24.0215 33.6805 23.6489 33.6129 23.2764C33.5474 22.9137 33.4828 22.5508 33.4184 22.1879C33.3978 22.0762 33.3772 21.9645 33.356 21.8494C33.3377 21.7457 33.3194 21.6419 33.3005 21.5351C33.284 21.4441 33.2676 21.3532 33.2506 21.2594C33.2274 21.0028 33.2418 20.8401 33.3319 20.5996C33.5188 20.3876 33.7046 20.193 33.9077 19.9979C33.9595 19.9466 34.0114 19.8953 34.0648 19.8424C34.3501 19.5629 34.6431 19.2964 34.9465 19.0368C35.5077 18.5494 36.0327 18.0253 36.559 17.5009C36.7361 17.3248 36.9142 17.1499 37.0924 16.9749C37.206 16.862 37.3195 16.7491 37.4329 16.6361C37.5123 16.5586 37.5123 16.5586 37.5933 16.4795C37.9513 16.1193 38.1785 15.8055 38.2129 15.2912C38.1709 14.8578 38.1307 14.6428 37.8542 14.2916C37.42 13.9584 37.0824 13.8411 36.5402 13.7621C36.4149 13.7434 36.2895 13.7248 36.1603 13.7056C36.0253 13.6863 35.8903 13.667 35.7512 13.6471C35.6109 13.6265 35.4707 13.6059 35.3305 13.5853C35.037 13.5422 34.7435 13.4996 34.45 13.4574C34.0737 13.4033 33.6976 13.3484 33.3215 13.2931C32.9625 13.2404 32.6036 13.1882 32.2446 13.136C32.1761 13.126 32.1076 13.116 32.0371 13.1056C31.8434 13.0774 31.6496 13.0495 31.4558 13.0217C31.3456 13.0057 31.2354 12.9898 31.1218 12.9734C30.8475 12.9394 30.8475 12.9394 30.537 12.9394C30.512 12.8564 30.4871 12.7733 30.4614 12.6878C30.2996 12.2332 30.0948 11.8093 29.8823 11.3766C29.8164 11.2414 29.8164 11.2414 29.7492 11.1035C29.6562 10.9129 29.563 10.7225 29.4696 10.5321C29.3289 10.2453 29.189 9.95806 29.0491 9.67081C28.7888 9.13719 28.5249 8.6054 28.2596 8.0742C28.2057 7.96501 28.2057 7.96501 28.1507 7.85361C28.0563 7.6634 27.9597 7.4743 27.8629 7.2853C27.8113 7.18356 27.7597 7.08182 27.7065 6.977C27.397 6.5286 27.0344 6.37412 26.4999 6.37914ZM26.6034 10.9726C26.6367 11.0429 26.67 11.1132 26.7043 11.1856C27.8244 13.5456 27.8244 13.5456 28.3114 14.4792C28.3722 14.5964 28.4331 14.7136 28.4958 14.8343C28.7471 15.2284 28.9487 15.3891 29.4063 15.5033C29.5294 15.522 29.6524 15.5408 29.7792 15.5601C29.88 15.5759 29.88 15.5759 29.9828 15.5921C30.1976 15.6255 30.4125 15.6573 30.6275 15.6891C30.768 15.7107 30.9085 15.7325 31.0489 15.7544C31.9468 15.8933 32.8463 16.0216 33.7459 16.1484C33.3681 16.614 32.9629 17.0384 32.5317 17.4545C32.4778 17.5068 32.424 17.5591 32.3686 17.6129C32.1436 17.8313 31.9187 18.0497 31.6912 18.2655C31.5235 18.425 31.3579 18.5865 31.1924 18.7484C31.0939 18.843 30.9954 18.9376 30.8939 19.0351C30.462 19.5844 30.2841 20.1038 30.3612 20.8034C30.3912 20.9872 30.4236 21.1707 30.4581 21.3537C30.4746 21.4512 30.4912 21.5487 30.5082 21.6491C30.5609 21.9574 30.6168 22.2651 30.6728 22.5729C30.7094 22.783 30.7457 22.9932 30.7818 23.2035C30.8703 23.7162 30.9617 24.2283 31.0545 24.7402C30.6457 24.6123 30.2739 24.4638 29.8957 24.2631C29.7965 24.2108 29.6974 24.1585 29.5953 24.1046C29.4918 24.0496 29.3884 23.9946 29.2818 23.938C29.0678 23.826 28.8538 23.714 28.6397 23.602C28.3085 23.4276 27.979 23.2514 27.6531 23.0674C27.4986 22.9827 27.4986 22.9827 27.3409 22.8963C27.2579 22.8487 27.1749 22.8011 27.0894 22.752C26.3265 22.5276 25.6896 22.8296 25.0184 23.1876C24.918 23.2431 24.8176 23.2985 24.7142 23.3557C24.6099 23.4116 24.5056 23.4676 24.3981 23.5252C23.9472 23.7676 23.499 24.0148 23.0511 24.2627C22.9317 24.3285 22.8122 24.3942 22.6892 24.462C22.5882 24.5193 22.4872 24.5765 22.3831 24.6355C22.2688 24.6873 22.2688 24.6873 22.1522 24.7402C22.0839 24.7061 22.0156 24.6719 21.9452 24.6367C21.964 24.5298 21.9828 24.4229 22.0022 24.3127C22.0726 23.911 22.1417 23.5091 22.2105 23.1071C22.2403 22.9341 22.2704 22.7611 22.3009 22.5882C22.7333 20.1312 22.7333 20.1312 22.4158 19.4476C22.0405 19.0245 21.6494 18.6219 21.2464 18.2252C21.1263 18.1052 21.1263 18.1052 21.0038 17.9828C20.5611 17.5434 20.1109 17.1241 19.6285 16.7284C19.4469 16.5488 19.3545 16.3816 19.2538 16.1484C19.4409 16.1226 19.4409 16.1226 19.6319 16.0963C20.0971 16.032 20.5622 15.9662 21.0272 15.9001C21.2281 15.8718 21.429 15.8437 21.6299 15.8161C21.9197 15.7762 22.2092 15.735 22.4987 15.6935C22.6324 15.6755 22.6324 15.6755 22.7687 15.6572C23.9703 15.4816 23.9703 15.4816 24.3865 15.0447C24.421 14.9815 24.4555 14.9183 24.491 14.8533C24.5318 14.7802 24.5727 14.7072 24.6147 14.6319C24.6768 14.5115 24.6768 14.5115 24.7401 14.3887C24.7857 14.3021 24.8314 14.2156 24.8784 14.1264C25.0253 13.8423 25.1679 13.5563 25.3094 13.2694C25.3571 13.1741 25.4047 13.0787 25.4538 12.9805C25.783 12.3178 26.0942 11.6481 26.3963 10.9726C26.4647 10.9726 26.533 10.9726 26.6034 10.9726Z" fill="black"/>
</svg>
