<svg width="82" height="82" viewBox="0 0 82 82" fill="none" xmlns="http://www.w3.org/2000/svg">
<g filter="url(#filter0_d_2154_31)">
<rect x="4" width="74" height="74" rx="37" fill="#000003" shape-rendering="crispEdges"/>
<path fill-rule="evenodd" clip-rule="evenodd" d="M51.4735 17.1034C54.358 19.9901 56.1872 24.2314 56.1872 29.6876V31.3751H58.1627C61.117 31.3751 62.332 35.1664 59.9267 36.8854L56.518 39.3199C57.598 41.8624 60.3182 45.8269 65.0882 47.1904C65.3436 47.2634 65.5781 47.3956 65.7728 47.5764C65.9674 47.7572 66.1166 47.9813 66.2083 48.2306C66.2999 48.4799 66.3314 48.7473 66.3002 49.0111C66.269 49.2749 66.176 49.5276 66.0287 49.7486C65.5495 50.4686 64.6787 51.4609 63.5312 52.2911C62.5862 52.9729 61.3645 53.6029 59.9492 53.8076L58.4912 55.9924L58.4102 56.1161L58.4012 56.1296L58.3495 56.2039L58.3315 56.2309L58.309 56.2646V56.2691L58.3045 56.2736L58.2887 56.2961L58.2865 56.3006L58.2842 56.3029L58.2797 56.3096L58.2752 56.3186L58.2707 56.3231V56.3254L58.2662 56.3299L58.264 56.3344L58.2617 56.3366L58.2572 56.3411L58.2505 56.3546V56.3569L58.246 56.3614L58.2392 56.3704V56.3726L58.2325 56.3794L58.228 56.3884L58.2257 56.3929L58.2212 56.3974L58.2167 56.4041L58.2122 56.4109L58.2077 56.4176V56.4199L58.2032 56.4244V56.4266L58.1987 56.4289V56.4334L58.1942 56.4379L58.1897 56.4446L58.1875 56.4491L58.1852 56.4536H58.183V56.4581L58.1807 56.4626H58.1762V56.4671H58.174V56.4716H58.1695V56.4761L58.1672 56.4806L58.165 56.4851L58.1627 56.4896H58.1582V56.4941L58.156 56.4964C57.9705 56.7752 57.7063 56.9925 57.397 57.1207C57.0877 57.2489 56.7472 57.2822 56.419 57.2164L51.5432 56.2421C50.5127 57.0026 49.0682 57.9431 47.473 58.7554C45.5515 59.7296 43.2025 60.6251 40.9997 60.6251C38.797 60.6251 36.448 59.7296 34.5265 58.7554C33.1026 58.0303 31.7405 57.1897 30.454 56.2421L25.5805 57.2164C25.2527 57.282 24.9129 57.2488 24.6041 57.121C24.2952 56.9932 24.0313 56.7766 23.8457 56.4986L22.0502 53.8076C20.635 53.6051 19.4132 52.9729 18.4682 52.2911C17.4979 51.591 16.6534 50.7313 15.9707 49.7486C15.8234 49.5276 15.7304 49.2749 15.6992 49.0111C15.668 48.7473 15.6995 48.4799 15.7911 48.2306C15.8828 47.9813 16.032 47.7572 16.2266 47.5764C16.4213 47.3956 16.6558 47.2634 16.9112 47.1904C21.6812 45.8269 24.4015 41.8646 25.4837 39.3199L22.0705 36.8876C19.663 35.1686 20.8802 31.3774 23.8345 31.3774H25.81V29.6899C25.81 24.2336 27.6392 19.9924 30.5237 17.1056C31.9022 15.7368 33.5369 14.6531 35.3344 13.9165C37.132 13.1798 39.0571 12.8048 40.9997 12.8126C44.791 12.8126 48.6047 14.2346 51.4735 17.1034Z" fill="#F5F5F5"/>
</g>
<defs>
<filter id="filter0_d_2154_31" x="0" y="0" width="82" height="82" filterUnits="userSpaceOnUse" color-interpolation-filters="sRGB">
<feFlood flood-opacity="0" result="BackgroundImageFix"/>
<feColorMatrix in="SourceAlpha" type="matrix" values="0 0 0 0 0 0 0 0 0 0 0 0 0 0 0 0 0 0 127 0" result="hardAlpha"/>
<feOffset dy="4"/>
<feGaussianBlur stdDeviation="2"/>
<feComposite in2="hardAlpha" operator="out"/>
<feColorMatrix type="matrix" values="0 0 0 0 0 0 0 0 0 0 0 0 0 0 0 0 0 0 0.25 0"/>
<feBlend mode="normal" in2="BackgroundImageFix" result="effect1_dropShadow_2154_31"/>
<feBlend mode="normal" in="SourceGraphic" in2="effect1_dropShadow_2154_31" result="shape"/>
</filter>
</defs>
</svg>
