<svg width="82" height="82" viewBox="0 0 82 82" fill="none" xmlns="http://www.w3.org/2000/svg">
<g filter="url(#filter0_d_2154_48)">
<rect x="4" width="74" height="74" rx="37" fill="#000003" shape-rendering="crispEdges"/>
<path d="M38.7504 14.5V28.9315C35.6349 28.3533 32.4168 28.7494 29.5345 30.0659C26.6522 31.3824 24.2457 33.5553 22.6428 36.2888C21.0398 39.0222 20.3184 42.1833 20.5767 45.3415C20.835 48.4997 22.0604 51.5015 24.0862 53.9382C26.1119 56.3749 28.8395 58.1279 31.8974 58.9587C34.9553 59.7894 38.195 59.6574 41.1752 58.5806C44.1554 57.5038 46.7312 55.5347 48.552 52.9413C50.3728 50.3478 51.3499 47.2563 51.3504 44.0875V35.6815C53.7691 36.7102 56.372 37.2354 59.0004 37.225H61.2504V24.625H59.0004C54.7187 24.625 51.3504 21.1668 51.3504 16.75V14.5H38.7504ZM43.2504 19H47.0484C47.9349 23.995 51.7284 27.991 56.7504 28.9225V32.563C54.4149 32.221 52.3067 31.3435 50.3537 30.0362L46.8504 27.6917V44.0875C46.8502 46.2697 46.1957 48.4018 44.9715 50.2082C43.7474 52.0147 42.0097 53.4127 39.9829 54.2216C37.9562 55.0305 35.7334 55.2132 33.6018 54.746C31.4702 54.2789 29.5276 53.1833 28.0249 51.6009C26.5222 50.0185 25.5284 48.0219 25.172 45.869C24.8155 43.7161 25.1127 41.5058 26.0252 39.5235C26.9377 37.5412 28.4235 35.8781 30.2908 34.7488C32.1581 33.6195 34.3211 33.076 36.5004 33.1885V36.7975C35.0345 36.6844 33.5685 37.0158 32.2938 37.7486C31.019 38.4813 29.9948 39.5812 29.3547 40.9049C28.7146 42.2285 28.4884 43.7144 28.7056 45.1686C28.9228 46.6227 29.5733 47.9777 30.5723 49.0565C31.5712 50.1353 32.8722 50.888 34.3053 51.2163C35.7385 51.5445 37.2374 51.4331 38.6063 50.8966C39.9752 50.3601 41.1506 49.4233 41.9791 48.2087C42.8075 46.994 43.2506 45.5578 43.2504 44.0875V19ZM33.1254 44.0875C33.1254 43.3416 33.4217 42.6262 33.9492 42.0988C34.4766 41.5713 35.192 41.275 35.9379 41.275C36.6838 41.275 37.3992 41.5713 37.9266 42.0988C38.4541 42.6262 38.7504 43.3416 38.7504 44.0875C38.7504 44.8334 38.4541 45.5488 37.9266 46.0762C37.3992 46.6037 36.6838 46.9 35.9379 46.9C35.192 46.9 34.4766 46.6037 33.9492 46.0762C33.4217 45.5488 33.1254 44.8334 33.1254 44.0875Z" fill="#F5F5F5"/>
</g>
<defs>
<filter id="filter0_d_2154_48" x="0" y="0" width="82" height="82" filterUnits="userSpaceOnUse" color-interpolation-filters="sRGB">
<feFlood flood-opacity="0" result="BackgroundImageFix"/>
<feColorMatrix in="SourceAlpha" type="matrix" values="0 0 0 0 0 0 0 0 0 0 0 0 0 0 0 0 0 0 127 0" result="hardAlpha"/>
<feOffset dy="4"/>
<feGaussianBlur stdDeviation="2"/>
<feComposite in2="hardAlpha" operator="out"/>
<feColorMatrix type="matrix" values="0 0 0 0 0 0 0 0 0 0 0 0 0 0 0 0 0 0 0.25 0"/>
<feBlend mode="normal" in2="BackgroundImageFix" result="effect1_dropShadow_2154_48"/>
<feBlend mode="normal" in="SourceGraphic" in2="effect1_dropShadow_2154_48" result="shape"/>
</filter>
</defs>
</svg>
