<svg width="43" height="43" viewBox="0 0 43 43" fill="none" xmlns="http://www.w3.org/2000/svg">
<path d="M23.3148 3.43771C23.1341 3.11524 22.8707 2.84675 22.5517 2.65989C22.2328 2.47302 21.8698 2.37451 21.5001 2.37451C21.1304 2.37451 20.7674 2.47302 20.4485 2.65989C20.1295 2.84675 19.8661 3.11524 19.6853 3.43771C19.2603 4.21121 18.8516 4.99463 18.4592 5.78796C17.2229 8.29749 16.1717 10.8941 15.3142 13.557C15.0188 14.4728 14.1433 15.1082 13.1403 15.1358C10.0999 15.2158 7.06941 15.5176 4.07296 16.039C2.42821 16.328 1.80983 18.2022 2.97858 19.3455C3.24492 19.6075 3.51408 19.8661 3.78608 20.1211C5.81984 22.0418 7.97018 23.8351 10.2248 25.491C11.0047 26.0626 11.3256 27.0422 11.0281 27.939C9.8948 31.3454 9.08375 34.8508 8.60559 38.4088C8.39308 40.0132 10.1101 41.1458 11.6018 40.3808C14.5599 38.8641 17.3886 37.1072 20.0593 35.1278C20.4777 34.8225 20.9822 34.658 21.5001 34.658C22.018 34.658 22.5225 34.8225 22.9408 35.1278C25.6111 37.108 28.4398 38.8649 31.3983 40.3808C32.888 41.1458 34.6071 40.0132 34.3946 38.4088C34.3124 37.8068 34.2225 37.2082 34.1247 36.6132C33.6338 33.6702 32.9141 30.77 31.9721 27.939C31.6746 27.0422 31.9933 26.0626 32.7753 25.491C35.3333 23.6167 37.7548 21.563 40.0216 19.3455C41.1903 18.2022 40.5741 16.328 38.9272 16.039C35.9312 15.5146 32.9004 15.2127 29.8598 15.1358C29.3791 15.1282 28.9124 14.9725 28.5234 14.6899C28.1344 14.4074 27.8419 14.0118 27.686 13.557C26.5569 10.0521 25.0931 6.66201 23.3148 3.43771Z" stroke="black" stroke-width="3" stroke-linecap="round" stroke-linejoin="round"/>
</svg>
