<svg width="82" height="82" viewBox="0 0 82 82" fill="none" xmlns="http://www.w3.org/2000/svg">
<g filter="url(#filter0_d_2154_63)">
<rect x="4" width="74" height="74" rx="37" fill="#000003" shape-rendering="crispEdges"/>
<path d="M50.3913 41.0833C49.983 40.8791 47.3288 39.6541 46.9205 39.4499C46.5122 39.2458 46.1038 39.2458 45.6955 39.6541C45.2872 40.0624 44.4705 41.2874 44.0622 41.6958C43.858 42.1041 43.4497 42.1041 43.0413 41.8999C41.6122 41.2874 40.183 40.4708 38.958 39.4499C37.9372 38.4291 36.9163 37.2041 36.0997 35.9791C35.8955 35.5708 36.0997 35.1624 36.3038 34.9583C36.508 34.7541 36.7122 34.3458 37.1205 34.1416C37.3247 33.9374 37.5288 33.5291 37.5288 33.3249C37.733 33.1208 37.733 32.7124 37.5288 32.5083C37.3247 32.3041 36.3038 29.8541 35.8955 28.8333C35.6913 27.4041 35.283 27.4041 34.8747 27.4041H33.8538C33.4455 27.4041 32.833 27.8124 32.6288 28.0166C31.4038 29.2416 30.7913 30.6708 30.7913 32.3041C30.9955 34.1416 31.608 35.9791 32.833 37.6124C35.0788 40.8791 37.9372 43.5333 41.408 45.1666C42.4288 45.5749 43.2455 45.9833 44.2663 46.1874C45.2872 46.5958 46.308 46.5958 47.533 46.3916C48.9622 46.1874 50.1872 45.1666 51.0038 43.9416C51.4122 43.1249 51.4122 42.3083 51.208 41.4916L50.3913 41.0833ZM55.4955 22.5041C47.533 14.5416 34.6705 14.5416 26.708 22.5041C20.1747 29.0374 18.9497 39.0416 23.4413 47.0041L20.583 57.4166L31.4038 54.5583C34.4663 56.1916 37.733 57.0083 40.9997 57.0083C52.2288 57.0083 61.2122 48.0249 61.2122 36.7958C61.4163 31.4874 59.1705 26.3833 55.4955 22.5041ZM49.983 51.0874C47.3288 52.7208 44.2663 53.7416 40.9997 53.7416C37.9372 53.7416 35.0788 52.9249 32.4247 51.4958L31.8122 51.0874L25.483 52.7208L27.1163 46.5958L26.708 45.9833C21.808 37.8166 24.258 27.6083 32.2205 22.5041C40.183 17.3999 50.3913 20.0541 55.2913 27.8124C60.1913 35.7749 57.9455 46.1874 49.983 51.0874Z" fill="white"/>
</g>
<defs>
<filter id="filter0_d_2154_63" x="0" y="0" width="82" height="82" filterUnits="userSpaceOnUse" color-interpolation-filters="sRGB">
<feFlood flood-opacity="0" result="BackgroundImageFix"/>
<feColorMatrix in="SourceAlpha" type="matrix" values="0 0 0 0 0 0 0 0 0 0 0 0 0 0 0 0 0 0 127 0" result="hardAlpha"/>
<feOffset dy="4"/>
<feGaussianBlur stdDeviation="2"/>
<feComposite in2="hardAlpha" operator="out"/>
<feColorMatrix type="matrix" values="0 0 0 0 0 0 0 0 0 0 0 0 0 0 0 0 0 0 0.25 0"/>
<feBlend mode="normal" in2="BackgroundImageFix" result="effect1_dropShadow_2154_63"/>
<feBlend mode="normal" in="SourceGraphic" in2="effect1_dropShadow_2154_63" result="shape"/>
</filter>
</defs>
</svg>
